<svg xmlns="http://www.w3.org/2000/svg" viewBox="0 0 64 64"><path d="M57.181,27.961c-3.3,2.369-7.939,5.519-10.03,5.519a.706.706,0,0,1-.644-.242c-.853-1.053-.622-4.743.688-10.965a1.312,1.312,0,0,0-2.372-1c-4.512,6.727-6.578,8.138-7.515,8.138-1.328,0-2.678-3.821-4.018-11.358a1.308,1.308,0,0,0-1.217-1.075v-.007l-.037,0-.039,0v.007a1.31,1.31,0,0,0-1.216,1.075c-1.341,7.537-2.692,11.358-4.02,11.358-.937,0-3-1.412-7.512-8.138a1.313,1.313,0,0,0-2.374,1c1.31,6.222,1.543,9.912.687,10.965-.094.118-.229.242-.643.242-2.091,0-6.726-3.149-10.03-5.519a1.313,1.313,0,0,0-1.831,1.832A30.363,30.363,0,0,1,11.19,50.542a2.728,2.728,0,0,0-.042.476c0,2.724,3.814,3.8,7.136,4.437a76.911,76.911,0,0,0,13.6,1.105v0c.049,0,.1,0,.148,0s.1,0,.148,0v0a76.99,76.99,0,0,0,13.6-1.105c3.323-.635,7.137-1.715,7.137-4.437a2.642,2.642,0,0,0-.042-.476,30.369,30.369,0,0,1,6.131-20.749,1.313,1.313,0,0,0-1.831-1.832Zm-25,24.841h-.01l-.139,0-.137,0h-.01c-8.141-.024-13.522-.971-15.9-1.784,2.375-.814,7.756-1.761,15.9-1.784h.294c8.14.023,13.521.97,15.9,1.784C45.7,51.831,40.322,52.778,32.183,52.8Z"/><circle cx="32.035" cy="11.408" r="3.97"/><circle cx="15.278" cy="16.204" r="3.308"/><circle cx="48.517" cy="16.204" r="3.308"/><circle cx="2.513" cy="25.63" r="2.23"/><circle cx="61.487" cy="25.63" r="2.23"/></svg>