<svg xmlns="http://www.w3.org/2000/svg" viewBox="0 0 128 128"><defs><style>.a,.b{fill:#d32f2f;}.b{font-size:18px;font-family:ArialMT, Arial;}.c{letter-spacing:-0.055em;}</style></defs><path class="a" d="M89.3,35.1c-3.332,2.39-8.01,5.568-10.119,5.568a.713.713,0,0,1-.65-.244c-.861-1.062-.628-4.786.695-11.063a1.324,1.324,0,0,0-2.395-1.012c-4.551,6.787-6.636,8.21-7.581,8.21-1.34,0-2.7-3.854-4.054-11.459a1.319,1.319,0,0,0-1.228-1.084v-.007l-.037,0-.04,0v.007A1.321,1.321,0,0,0,62.661,25.1c-1.353,7.605-2.717,11.459-4.056,11.459-.945,0-3.028-1.424-7.579-8.21a1.324,1.324,0,0,0-2.4,1.012c1.322,6.277,1.557,10,.693,11.063-.095.119-.231.244-.648.244-2.11,0-6.787-3.177-10.121-5.568a1.324,1.324,0,0,0-1.846,1.848A30.633,30.633,0,0,1,42.9,57.881a2.687,2.687,0,0,0-.042.48c0,2.748,3.848,3.836,7.2,4.477a77.617,77.617,0,0,0,13.726,1.115v0c.049,0,.1,0,.149,0s.1,0,.149,0v0A77.676,77.676,0,0,0,77.8,62.838c3.353-.641,7.2-1.731,7.2-4.477a2.7,2.7,0,0,0-.042-.48,30.637,30.637,0,0,1,6.186-20.934A1.325,1.325,0,0,0,89.3,35.1ZM64.075,60.161h-.01l-.14,0-.139,0h-.01c-8.213-.023-13.642-.979-16.038-1.8,2.4-.822,7.825-1.777,16.038-1.8h.3c8.213.023,13.642.978,16.038,1.8C77.716,59.182,72.287,60.138,64.075,60.161Z"/><circle class="a" cx="63.926" cy="18.399" r="4.005"/><circle class="a" cx="47.02" cy="23.238" r="3.337"/><circle class="a" cx="80.554" cy="23.238" r="3.337"/><circle class="a" cx="34.14" cy="32.747" r="2.25"/><circle class="a" cx="93.641" cy="32.747" r="2.25"/><text class="b" transform="translate(11.969 86.162)"><tspan class="c">V</tspan><tspan x="11.013" y="0">et Business</tspan><tspan x="14.516" y="21.6">Academy</tspan></text></svg>