<svg xmlns="http://www.w3.org/2000/svg" viewBox="0 0 448.264 448.264"><defs><style>.a{fill:#fff;}</style></defs><path class="a" d="M0,194.874a40.23,40.23,0,0,0,26.122,38.139v-72.62c0-1.045.522-2.612.522-3.657A40.749,40.749,0,0,0,0,194.874Z"/><path class="a" d="M142.631,284.735H74.19l25.6,93a32.393,32.393,0,0,0,31.347,24.033A32.915,32.915,0,0,0,157.782,388.7a30.3,30.3,0,0,0,5.224-28.212Z"/><path class="a" d="M26.648,156.212h.522v-.522C27.17,156.212,27.17,156.212,26.648,156.212Z"/><path class="a" d="M401.244,148.9h-4.18v94.041h4.18a47.021,47.021,0,0,0,0-94.041Z"/><path class="a" d="M41.8,160.392V234.58a35.527,35.527,0,0,0,35.526,34.482h95.086V128H77.325C58.517,128,41.8,141.584,41.8,160.392Z"/><polygon class="a" points="188.084 271.151 381.39 348.474 381.39 46.498 188.084 123.821 188.084 271.151"/></svg>