<?xml version="1.0" encoding="iso-8859-1"?>
<!-- Generator: Adobe Illustrator 19.0.0, SVG Export Plug-In . SVG Version: 6.00 Build 0)  -->
<svg version="1.1" id="Capa_1" xmlns="http://www.w3.org/2000/svg" xmlns:xlink="http://www.w3.org/1999/xlink" x="0px" y="0px"
	 viewBox="0 0 512 512" style="enable-background:new 0 0 512 512;" xml:space="preserve">
<g>
	<g>
		<path d="M30.002,104.437v259.931h451.996V104.437H30.002z M180.994,312.707h-30V160.882h30V312.707z M240.998,312.707h-30V192.638
			h30V312.707z M301.002,312.707h-30v-91.821h30V312.707z M361.006,312.707h-30v-61.819h30V312.707z"/>
	</g>
</g>
<g>
	<g>
		<polygon points="512,394.392 0,394.392 0,424.392 174.887,424.392 122.397,491.864 146.587,509.608 212.092,424.392 
			299.908,424.392 365.413,509.608 389.603,491.864 337.113,424.392 512,424.392 		"/>
	</g>
</g>
<g>
	<g>
		<polygon points="271,44.413 271,2.392 241,2.392 241,44.413 0,44.413 0,74.413 512,74.413 512,44.413 		"/>
	</g>
</g>
<g>
</g>
<g>
</g>
<g>
</g>
<g>
</g>
<g>
</g>
<g>
</g>
<g>
</g>
<g>
</g>
<g>
</g>
<g>
</g>
<g>
</g>
<g>
</g>
<g>
</g>
<g>
</g>
<g>
</g>
</svg>
