<svg xmlns="http://www.w3.org/2000/svg" viewBox="0 0 98 98"><defs><style>.a{fill:#d32f2f;}</style></defs><path class="a" d="M83.138,43.524c-4.478,3.212-10.762,7.483-13.6,7.483a.955.955,0,0,1-.873-.329c-1.158-1.427-.844-6.43.933-14.866a1.779,1.779,0,0,0-3.217-1.359C60.267,43.572,57.466,45.485,56.2,45.485c-1.8,0-3.631-5.18-5.448-15.4A1.775,1.775,0,0,0,49.1,28.63v-.01c-.017,0-.033,0-.051,0s-.036,0-.053,0v.01a1.778,1.778,0,0,0-1.648,1.457c-1.818,10.218-3.65,15.4-5.449,15.4-1.27,0-4.07-1.913-10.185-11.032A1.779,1.779,0,0,0,28.5,35.812c1.776,8.436,2.092,13.439.932,14.866-.129.16-.312.329-.872.329-2.835,0-9.12-4.27-13.6-7.483a1.78,1.78,0,0,0-2.482,2.484,41.161,41.161,0,0,1,8.313,28.129,3.679,3.679,0,0,0-.057.646c0,3.693,5.171,5.154,9.675,6.015a104.237,104.237,0,0,0,18.443,1.5v0c.066,0,.134,0,.2,0s.133,0,.2,0v0A104.411,104.411,0,0,0,67.69,80.8c4.5-.861,9.676-2.325,9.676-6.015a3.687,3.687,0,0,0-.057-.646,41.166,41.166,0,0,1,8.312-28.129,1.78,1.78,0,0,0-2.483-2.484ZM49.248,77.2h-.014l-.188,0-.186,0h-.014c-11.036-.032-18.332-1.316-21.552-2.418,3.22-1.1,10.516-2.388,21.552-2.419h.4c11.035.031,18.33,1.315,21.551,2.419C67.578,75.886,60.283,77.17,49.248,77.2Z"/><circle class="a" cx="49.047" cy="21.083" r="5.382"/><circle class="a" cx="26.33" cy="27.586" r="4.485"/><circle class="a" cx="71.392" cy="27.586" r="4.485"/><circle class="a" cx="9.023" cy="40.364" r="3.023"/><circle class="a" cx="88.977" cy="40.364" r="3.023"/></svg>