<svg xmlns="http://www.w3.org/2000/svg" xmlns:xlink="http://www.w3.org/1999/xlink" viewBox="0 0 540 288"><defs><style>.a{fill:#fff;}.b{opacity:0.32;}.c{clip-path:url(#a);}.d{fill:#d32f2f;fill-rule:evenodd;}</style><clipPath id="a"><rect class="a" width="540" height="288" transform="translate(540 288) rotate(180)"/></clipPath></defs><g class="b"><rect class="a" width="540" height="288" transform="translate(540 288) rotate(180)"/><g class="c"><path class="d" d="M-22.507,9.472v.92q6.827,3.87,13.659,7.727c.326.183.623.419,1.117.759-.574.328-.979.566-1.383.8q-6.7,3.766-13.393,7.535v.945q6.762-3.98,13.514-7.973c.449-.265.9-.519,1.515-.874.044.643.1,1.063.092,1.483-.082,7.559-.2,15.117-.236,22.674a2.222,2.222,0,0,1-1.264,2.189q-6.828,3.973-13.621,8.008v.578q6.981-3.923,13.952-7.869a2.224,2.224,0,0,1,2.535-.038C.587,50.117,7.225,53.844,13.852,57.592c.331.187.64.416,1.2.777-1.149.661-2.066,1.2-2.99,1.723-6,3.373-12.012,6.727-17.995,10.132a2.215,2.215,0,0,1-2.529.05q-7-4.016-14.042-7.966v.677c5.675,3.25,12.842,7.523,14.759,8.886q.114,12.549.232,25.258c-.747-.148-8.734-4.7-14.991-8.433v.817q6.63,3.757,13.265,7.5c.409.232.8.5,1.357.846-.505.339-.837.6-1.2.8q-6.711,3.77-13.423,7.545v.756q6.65-3.912,13.289-7.84c.45-.267.9-.521,1.528-.882.043.627.1,1.047.1,1.463-.079,7.608-.182,15.214-.245,22.821a1.9,1.9,0,0,1-.98,1.911q-6.855,3.995-13.688,8.036v.753q6.995-3.919,13.975-7.865a2,2,0,0,1,2.271-.044c6.644,3.8,13.319,7.555,19.982,11.325.328.183.633.405,1.078.7-.433.292-.72.526-1.04.706Q3.683,143.712-6.393,149.382a1.779,1.779,0,0,1-2.012.041q-7.04-4.019-14.1-7.994v.72q6.836,4.05,13.674,8.088a1.537,1.537,0,0,1,.9,1.49c.051,7.91.135,15.818.2,23.729,0,.191-.034.383-.084.909-4.967-2.943-9.84-5.832-14.693-8.71v.9q6.737,3.816,13.474,7.631c.279.158.521.386.893.656-.485.313-.827.563-1.192.768l-13.175,7.412v.878q4.826-2.834,9.651-5.662c1.6-.935,3.209-1.852,5.061-2.919.022.672.061,1.141.056,1.612-.085,7.513-.194,15.03-.239,22.545a2.235,2.235,0,0,1-1.26,2.2q-6.652,3.873-13.269,7.807v.564q7-3.93,14-7.868a1.583,1.583,0,0,1,1.757-.078q10.364,5.9,20.744,11.759a6.547,6.547,0,0,1,.641.505c-.6.346-1.02.59-1.442.827-6.5,3.658-13.022,7.294-19.5,11a2.327,2.327,0,0,1-2.666-.016q-6.749-3.876-13.532-7.688v.726q6.656,3.945,13.314,7.884a1.757,1.757,0,0,1,1.121,1.661c.028,7.852.123,15.71.191,23.567,0,.239-.03.481-.057.865a5.705,5.705,0,0,1-.937-.325q-6.819-4.035-13.632-8.071v.905q6.524,3.7,13.052,7.383c.363.209.7.468,1.221.814-.584.339-.992.579-1.4.808q-6.434,3.615-12.868,7.233v.763q6.828-4.017,13.651-8.043A8.519,8.519,0,0,1-8,256.286c.023.592.058.974.058,1.356q-.132,11.5-.254,22.988a1.782,1.782,0,0,1-.93,1.787q-6.7,3.911-13.38,7.865v.688q6.864-3.861,13.722-7.729a1.692,1.692,0,0,1,1.89-.1Q2.87,288.7,12.661,294.209h1.312c-3.962-2.035-19.107-10.922-21.225-12.486q-.108-12.555-.228-25.267c1.159.289,19.792,11.187,22.116,12.906q.116,12.345.23,24.847h.505c-.022-.358-.04-.659-.036-.95.082-7.515.2-15.031.227-22.545a2.319,2.319,0,0,1,1.362-2.292c6.5-3.779,12.967-7.618,19.447-11.432.361-.212.751-.384,1.3-.664.031.629.077,1.1.071,1.562-.082,7.517-.187,15.032-.236,22.547a2.234,2.234,0,0,1-1.232,2.212c-6.5,3.784-12.963,7.63-19.437,11.453l-.185.109h.665q9.735-5.459,19.456-10.939a1.905,1.905,0,0,1,2.145-.078c6.463,3.7,12.952,7.347,19.431,11.017h.973L38.439,281.833c-.08-8.449-.155-16.872-.231-25.329,1.15.305,20.231,11.486,22.064,12.9.073,8.14.147,16.33.224,24.805h.53a3.929,3.929,0,0,1-.06-.632q.123-11.628.253-23.259a1.565,1.565,0,0,1,.79-1.568q6.433-3.771,12.849-7.57v.006l5.682-3.353,1.87-1.1c.164-.094.352-.183.564-.283l.184-.067a8.157,8.157,0,0,1,.115,1.1c-.08,7.7-.182,15.408-.248,23.111a1.782,1.782,0,0,1-.945,1.783c-2.462,1.431-4.914,2.881-7.369,4.325v.08Q68.4,290.493,62.1,294.209h1.028l12.362-6.95q3.548-1.987,7.1-3.981a3.92,3.92,0,0,1,.4-.193,2.194,2.194,0,0,1,.237-.079c.019-.006.039-.009.059-.014a1.527,1.527,0,0,1,.673-.007,2.154,2.154,0,0,1,.5.207c6.468,3.695,12.959,7.349,19.446,11.017h1.119q-10.037-5.934-20.064-11.876a1.448,1.448,0,0,1-.856-1.372q-.074-12-.191-24a4.462,4.462,0,0,1,.091-.6c.447.224.81.391,1.133.587q9.825,5.809,19.648,11.631a1.755,1.755,0,0,1,1.115,1.666c.03,7.855.122,15.713.192,23.568,0,.123-.007.251-.019.4h.694a3.71,3.71,0,0,1-.053-.6q.124-11.628.251-23.261a1.578,1.578,0,0,1,.8-1.566q10.331-6.048,20.635-12.149c.09-.044.2-.094.337-.148l.177-.064c.031.5.069.868.065,1.227-.085,7.656-.184,15.309-.256,22.966a1.782,1.782,0,0,1-.914,1.8c-6.7,3.907-13.363,7.861-20.044,11.8h.88c6.441-3.628,12.891-7.235,19.319-10.884a2.382,2.382,0,0,1,1.857-.278,2.834,2.834,0,0,1,.4.179c6.445,3.687,12.92,7.326,19.385,10.983h1.49c-3.612-1.78-17.749-10.043-21.282-12.474q-.111-12.567-.228-25.139c.68.24,3.005,1.491,5.955,3.159l13.933,8.258c.8.5,1.491.951,2.024,1.311.078,8.226.154,16.545.231,24.885h.674a4.483,4.483,0,0,1-.063-.67c.085-7.712.184-15.421.256-23.132a1.977,1.977,0,0,1,.432-1.4c.031-.029.058-.061.09-.089a2.136,2.136,0,0,1,.255-.2c.094-.064.183-.129.289-.19q8.411-4.911,16.8-9.858c.967-.568,1.915-1.167,2.886-1.735.323-.189.683-.35,1.124-.564l.078-.032c.023.556.055.929.055,1.3q-.131,11.5-.253,22.988a1.784,1.784,0,0,1-.93,1.787c-6.692,3.906-13.361,7.859-20.038,11.792h1.054q9.736-5.487,19.472-10.968a3.65,3.65,0,0,1,.425-.206c.034-.013.069-.024.1-.036a1.949,1.949,0,0,1,.219-.055,1.381,1.381,0,0,1,.5-.009,1.927,1.927,0,0,1,.5.2q9.764,5.562,19.555,11.072h1.46c-1.65-.848-5.238-2.883-9.017-5.082v0q-3.011-1.785-6.031-3.555c-2.541-1.52-4.674-2.829-5.722-3.531a1.934,1.934,0,0,1-.461-.91q-.1-12.074-.22-24.291c.007-.107.012-.2.019-.32.958.406,4.858,2.6,9.127,5.083l3.288,1.949v-.026c4.411,2.6,8.52,5.089,9.533,5.838q.114,12.345.229,24.847h.652c-.022-.358-.04-.659-.036-.95.082-7.515.2-15.031.228-22.545a2.316,2.316,0,0,1,1.361-2.292c6.5-3.779,12.968-7.618,19.447-11.432.328-.193.686-.355,1.157-.592.031.591.072,1.042.067,1.49-.082,7.517-.187,15.032-.237,22.547a2.233,2.233,0,0,1-1.232,2.212c-6.5,3.784-12.963,7.63-19.436,11.453l-.185.109H200q9.735-5.459,19.457-10.939a2.6,2.6,0,0,1,1-.36,1.91,1.91,0,0,1,.992.282c6.463,3.7,12.953,7.347,19.431,11.017h1.12l-20.882-12.376c-.079-8.43-.154-16.835-.23-25.274,2.1.891,20.136,11.472,21.917,12.845.072,8.14.146,16.33.223,24.805h.677a3.929,3.929,0,0,1-.06-.632q.123-11.628.254-23.259a1.566,1.566,0,0,1,.789-1.568q10.353-6.069,20.678-12.182a3.711,3.711,0,0,1,.471-.187l0,.017c.03.485.071.851.067,1.2-.086,7.657-.189,15.312-.248,22.968a1.9,1.9,0,0,1-1.035,1.877c-6.678,3.9-13.332,7.839-20,11.761h1.175q9.7-5.459,19.413-10.914a2.33,2.33,0,0,1,.984-.335,1.81,1.81,0,0,1,.883.256c6.452,3.686,12.93,7.332,19.4,10.993h1.118q-9.967-5.9-19.927-11.794a1.559,1.559,0,0,1-.956-1.465c-.046-7.952-.125-15.9-.191-23.857a6.977,6.977,0,0,1,.085-.741c.525.279.923.48,1.295.7,6.469,3.829,12.92,7.675,19.4,11.475a2.1,2.1,0,0,1,1.212,2.061c.029,7.565.116,15.123.183,22.688,0,.29-.011.586-.027.93h.7a4.256,4.256,0,0,1-.047-.616c.081-7.7.179-15.408.254-23.113a1.67,1.67,0,0,1,.82-1.7q10.3-6.022,20.556-12.1a4.891,4.891,0,0,1,.571-.25c.029.49.064.813.062,1.127-.089,7.709-.191,15.411-.255,23.115a1.779,1.779,0,0,1-.948,1.776c-6.673,3.9-13.321,7.838-19.98,11.761h.875c6.392-3.593,12.792-7.167,19.161-10.8a2.863,2.863,0,0,1,1.429-.443,2.831,2.831,0,0,1,1.221.411c6.341,3.65,12.724,7.227,19.094,10.829h1.461c-3.769-1.9-18.192-10.341-21.219-12.462-.077-8.2-.152-16.5-.231-25.171a35.273,35.273,0,0,1,3.5,1.784c6.139,3.639,12.11,7.179,18.128,10.745.1.064.194.128.284.189q.112,12.435.229,24.915h.675a1.6,1.6,0,0,1-.065-.422c.079-7.857.187-15.715.244-23.573a1.8,1.8,0,0,1,1.126-1.68q8.41-4.911,16.8-9.858c.967-.568,1.916-1.167,2.887-1.735.324-.19.686-.352,1.13-.567.035.549.079.955.074,1.354q-.128,11.423-.252,22.841a2.438,2.438,0,0,1-.24,1.244l-.017.024a1.479,1.479,0,0,1-.253.3,2.207,2.207,0,0,1-.293.224c-.02.012-.035.026-.056.038-6.709,3.912-13.392,7.868-20.079,11.811H337.1q9.755-5.5,19.511-10.987a2.115,2.115,0,0,1,.874-.3,1.513,1.513,0,0,1,.738.207q5.973,3.4,11.958,6.782v-.063q3.853,2.178,7.7,4.362H379.2c-1.628-.837-5.144-2.83-8.869-5v-.088q-5.266-3.123-10.551-6.218c-.272-.17-.517-.326-.741-.47a2.173,2.173,0,0,1-1-2.019c-.023-7.52-.116-15.037-.179-22.555-.006-.414.027-.829.056-1.345.587.249,2.278,1.17,4.48,2.415q3.894,2.308,7.789,4.617v-.087l.147.087v-.026c4.41,2.6,8.52,5.089,9.532,5.838q.114,12.345.23,24.847h.5c-.022-.358-.04-.659-.036-.95.082-7.515.2-15.031.227-22.545a2.319,2.319,0,0,1,1.362-2.292c6.5-3.779,12.967-7.618,19.447-11.432.361-.212.751-.384,1.3-.664.031.629.076,1.1.071,1.562-.082,7.517-.187,15.032-.236,22.547a2.234,2.234,0,0,1-1.232,2.212c-6.5,3.784-12.963,7.63-19.437,11.453l-.185.109h.664Q392.28,288.751,402,283.27a1.9,1.9,0,0,1,2.144-.078c6.463,3.7,12.952,7.347,19.43,11.017h.973l-20.881-12.376c-.08-8.449-.155-16.872-.231-25.329,1.15.305,20.231,11.486,22.064,12.9.073,8.14.146,16.33.224,24.805h.53a3.933,3.933,0,0,1-.061-.632q.125-11.628.254-23.259a1.566,1.566,0,0,1,.789-1.568q10.355-6.069,20.679-12.182a6.578,6.578,0,0,1,.615-.242c.031.526.077.9.072,1.277-.085,7.657-.189,15.312-.247,22.968a1.9,1.9,0,0,1-1.035,1.877c-6.678,3.9-13.333,7.839-20,11.761h1.028q9.7-5.459,19.412-10.914a1.792,1.792,0,0,1,2.014-.079c6.452,3.686,12.931,7.332,19.4,10.993h.971q-9.968-5.9-19.927-11.794a1.559,1.559,0,0,1-.956-1.465c-.046-7.952-.125-15.9-.191-23.857,0-.188.044-.377.095-.814.6.321,1.027.533,1.433.776,6.468,3.829,12.919,7.675,19.4,11.475a2.1,2.1,0,0,1,1.211,2.061c.029,7.565.116,15.123.183,22.688,0,.29-.011.586-.027.93h.554a4.4,4.4,0,0,1-.047-.616c.081-7.7.18-15.408.255-23.113a1.668,1.668,0,0,1,.82-1.7q10.295-6.022,20.555-12.1c.166-.1.351-.153.715-.309.029.526.068.858.065,1.186-.088,7.709-.19,15.411-.255,23.115a1.78,1.78,0,0,1-.947,1.776c-6.673,3.9-13.322,7.838-19.98,11.761h.727c6.392-3.593,12.792-7.167,19.162-10.8a2.451,2.451,0,0,1,2.8-.032c6.341,3.65,12.724,7.227,19.093,10.829h1.315c-3.77-1.9-18.192-10.341-21.219-12.462-.079-8.323-.155-16.746-.235-25.552,7.547,4.474,14.759,8.749,22.064,13.077q.112,12.447.229,24.937h.528a1.689,1.689,0,0,1-.065-.422c.079-7.857.187-15.715.244-23.573a1.8,1.8,0,0,1,1.127-1.68q8.409-4.911,16.8-9.858c.967-.568,1.916-1.167,2.886-1.735.362-.212.753-.379,1.273-.636.036.587.084,1.006.079,1.423q-.129,11.423-.253,22.841a1.785,1.785,0,0,1-.858,1.829c-6.709,3.912-13.393,7.868-20.08,11.811h.915q9.755-5.5,19.511-10.987a1.6,1.6,0,0,1,1.76-.094q5.971,3.4,11.957,6.782v-.785q-5.514-3.27-11.049-6.511a2.215,2.215,0,0,1-1.244-2.2c-.022-7.52-.115-15.037-.178-22.555-.007-.472.038-.937.068-1.562.532.269.918.44,1.283.658q5.561,3.292,11.12,6.591V262.7q-5.7-3.231-11.411-6.458c-.17-.092-.316-.221-.622-.435a8.023,8.023,0,0,1,.894-.7q5.568-3.138,11.139-6.267v-.712q-5.871,3.459-11.744,6.915a5.469,5.469,0,0,1-.608.225c-.024-.535-.064-.911-.058-1.29.083-7.653.184-15.31.251-22.966a1.779,1.779,0,0,1,.93-1.785q5.624-3.283,11.229-6.6v-.826q-5.665,3.184-11.311,6.4a2.324,2.324,0,0,1-2.665-.012c-6.513-3.741-13.065-7.412-19.6-11.115-.373-.208-.725-.456-1.233-.785.367-.26.609-.467.878-.618q10.2-5.737,20.408-11.478a1.674,1.674,0,0,1,1.885,0q5.811,3.3,11.636,6.588V210c-4.029-2.385-8.029-4.754-12.048-7.136-.075-8.427-.153-16.854-.234-25.652,4.171,2.472,8.244,4.887,12.282,7.283v-.845q-5.446-3.081-10.9-6.161c-.286-.165-.544-.373-1.052-.72.605-.348.976-.568,1.351-.776q5.3-2.982,10.6-5.961v-.809q-5.272,3.109-10.545,6.224c-.46.271-.926.532-1.638.943-.039-.7-.084-1.119-.076-1.542.08-7.563.189-15.123.234-22.689a2.24,2.24,0,0,1,1.267-2.2q5.388-3.139,10.758-6.316V143q-5.686,3.193-11.371,6.393a1.787,1.787,0,0,1-2.012.072c-6.777-3.867-13.579-7.69-20.37-11.534-.244-.138-.464-.319-.834-.575.442-.3.768-.558,1.125-.763q10.014-5.628,20.03-11.256a1.8,1.8,0,0,1,2.012-.085q5.7,3.26,11.42,6.485v-.785q-5.457-3.234-10.922-6.46a1.774,1.774,0,0,1-1-1.736c-.042-7.7-.127-15.413-.192-23.121,0-.372.047-.742.088-1.289.556.288.983.479,1.385.718q5.318,3.15,10.64,6.3v-.834Q547.639,101.56,542.4,98.6c-.372-.214-.724-.462-1.23-.787.36-.259.6-.472.869-.624q5.415-3.045,10.834-6.091v-.69q-5.258,3.1-10.511,6.214c-.411.242-.823.473-1.4.8a11.865,11.865,0,0,1-.149-1.281c.083-7.713.182-15.422.254-23.135a1.79,1.79,0,0,1,.922-1.8q5.452-3.181,10.882-6.388v-.75q-5.6,3.148-11.2,6.3a1.8,1.8,0,0,1-2.015.05c-6.783-3.871-13.584-7.7-20.384-11.548-.248-.137-.469-.316-.89-.608.518-.335.829-.561,1.16-.747,6.509-3.665,13.033-7.3,19.516-11.007a2.656,2.656,0,0,1,3.06-.037q5.36,3.1,10.757,6.128v-.8c-3.9-2.316-7.781-4.613-11.689-6.928q-.118-12.611-.235-25.281c.709.137,6.357,3.3,11.924,6.567v-.694q-5.335-3.02-10.672-6.042c-.245-.135-.463-.319-.819-.567a8.519,8.519,0,0,1,.762-.553q5.364-3.024,10.729-6.029v-.839L542.4,17.592c-.376.22-.755.436-1.263.729a6.345,6.345,0,0,1-.177-1.056q.1-9.267.2-18.53h-.836c.059,6.472.117,13.007.176,19.73-7.518-4.456-14.756-8.747-22.06-13.074q-.03-3.33-.062-6.656h-.828c-.019,1.82-.041,3.64-.055,5.46a1.9,1.9,0,0,1-1.021,1.885c-6.66,3.894-13.293,7.833-19.937,11.756-.287.17-.6.3-1,.508a3.837,3.837,0,0,1-.2-.844q.1-9.385.2-18.765h-.834c.059,6.484.119,13.028.181,19.778-7.552-4.479-14.774-8.756-22.12-13.11q-.031-3.328-.062-6.668h-.826q-.033,2.787-.062,5.576a1.578,1.578,0,0,1-.786,1.573q-10.367,6.066-20.7,12.178a4.571,4.571,0,0,1-.611.21c-.024-.593-.063-1.019-.057-1.447q.1-9.043.2-18.09h-.84c.058,6.491.117,12.987.175,19.624-.653-.343-1.079-.543-1.481-.781C441.228,13.746,434.771,9.9,428.281,6.1a2.116,2.116,0,0,1-1.2-2.066c0-1.766-.023-3.532-.034-5.3h-.811c-.018,1.82-.044,3.641-.06,5.462a1.775,1.775,0,0,1-.938,1.78q-10.173,5.944-20.305,11.956c-.207.123-.435.21-.818.39-.039-.5-.1-.916-.1-1.327q.1-9.129.2-18.261h-.839q.065,9.21.158,18.418c0,.326-.045.655-.084,1.218-.6-.319-.99-.511-1.361-.732q-9.759-5.784-19.527-11.553a1.984,1.984,0,0,1-1.173-1.937c0-1.805-.023-3.609-.034-5.414h-.816c-.019,1.805-.042,3.609-.058,5.414a1.785,1.785,0,0,1-.94,1.783c-6.586,3.843-13.148,7.725-19.716,11.592l-.114.068c-.175.1-.354.206-.543.315-.16.087-.338.164-.6.283a4.713,4.713,0,0,1-.151-.925q.1-9.267.2-18.53h-.984c.059,6.443.117,12.951.176,19.643-7.464-4.425-14.657-8.689-21.913-12.987q-.03-3.33-.062-6.656h-.974c-.019,1.82-.041,3.64-.055,5.46a1.9,1.9,0,0,1-1.021,1.885c-6.65,3.888-13.274,7.821-19.908,11.739-.256.143-.535.268-.91.446a3.047,3.047,0,0,1-.181-.765q.1-9.385.2-18.765h-.981c.058,6.456.118,12.972.18,19.691-7.5-4.448-14.675-8.7-21.972-13.023q-.031-3.328-.063-6.668h-.973q-.032,2.787-.061,5.576a2.009,2.009,0,0,1-.239,1.033,1.455,1.455,0,0,1-.206.272c-.033.033-.08.062-.118.093a2.436,2.436,0,0,1-.294.217q-10.207,5.973-20.39,11.993c-.14.071-.3.151-.476.233-.062.019-.142.043-.234.073-.024-.568-.06-.984-.054-1.4q.1-9.043.2-18.09h-.987c.058,6.4.116,12.8.173,19.336,0,.07,0,.133-.006.207-.562-.291-.958-.483-1.326-.7C258.688,13.746,252.23,9.9,245.741,6.1a2.115,2.115,0,0,1-1.2-2.066c-.006-1.766-.023-3.532-.034-5.3h-.958c-.019,1.82-.045,3.641-.06,5.462a1.774,1.774,0,0,1-.939,1.78q-10.173,5.944-20.3,11.956c-.177.105-.388.193-.677.326-.039-.474-.095-.871-.091-1.263q.1-9.129.2-18.261h-.985q.064,9.21.158,18.418c0,.31-.041.629-.078,1.144-.518-.273-.881-.456-1.221-.658q-9.757-5.784-19.526-11.553a1.984,1.984,0,0,1-1.173-1.937c0-1.805-.023-3.609-.034-5.414h-.964c-.019,1.805-.042,3.609-.058,5.414a1.784,1.784,0,0,1-.94,1.783c-6.784,3.959-13.543,7.96-20.308,11.942-.175.1-.369.182-.664.316-.021-.107-.041-.2-.061-.294-.022-.387-.041-.679-.038-.97q.1-9.094.2-18.191H175c.059,6.457.118,12.939.178,19.624-7.479-4.435-14.646-8.678-21.915-12.99q-.03-3.312-.061-6.634h-.975c-.017,1.791-.038,3.581-.05,5.372a2.016,2.016,0,0,1-1.1,2c-6.618,3.862-13.208,7.777-19.809,11.674-.276.163-.577.292-.989.487-.031-.111-.063-.211-.093-.311-.02-.41-.038-.705-.035-1q.107-9.11.2-18.217h-.987c.059,6.478.119,12.974.177,19.67-7.527-4.463-14.736-8.74-21.97-13.028-.02-2.217-.041-4.427-.061-6.642h-.972c-.019,1.824-.041,3.649-.056,5.473a1.781,1.781,0,0,1-.973,1.763Q95.463,11.845,85.451,17.778c-.244.147-.526.27-.89.442-.042-.518-.1-.918-.093-1.318.065-6.055.142-12.111.2-18.167H83.7q.069,8.913.136,17.825c0,.5-.022,1-.043,1.718l-.157-.08-8.781-5.18v.046q-5.9-3.5-11.8-6.966a2.116,2.116,0,0,1-1.2-2.066c-.005-1.766-.023-3.532-.034-5.3h-.81c-.02,1.82-.046,3.641-.06,5.462a1.776,1.776,0,0,1-.939,1.78Q49.834,11.921,39.7,17.933c-.207.123-.435.21-.817.39-.039-.5-.1-.916-.1-1.327q.1-9.129.2-18.261h-.839q.064,9.21.159,18.418c0,.326-.046.655-.085,1.218-.6-.319-.989-.511-1.361-.732Q27.106,11.855,17.339,6.086a1.985,1.985,0,0,1-1.174-1.937c0-1.805-.023-3.609-.034-5.414h-.817C15.3.54,15.273,2.344,15.257,4.149a1.785,1.785,0,0,1-.94,1.783C7.533,9.891.774,13.892-5.992,17.874c-.21.123-.439.208-.852.4-.028-.594-.062-.972-.058-1.351q.1-9.094.2-18.191h-.839c.06,6.485.119,13,.179,19.711C-12.517,15.391-17.518,12.428-22.507,9.472Zm15.7,63.276a1.785,1.785,0,0,1,1.15-1.663q7.967-4.66,15.92-9.339c1.593-.935,3.2-1.848,5.014-2.89.038.57.087.951.083,1.324-.084,7.663-.187,15.326-.249,22.989a1.9,1.9,0,0,1-1.021,1.885C7.429,88.948.8,92.885-5.847,96.8c-.288.174-.6.308-1,.511a3.64,3.64,0,0,1-.2-.846C-6.977,88.56-6.868,80.656-6.809,72.748Zm89.261-1.606a1.774,1.774,0,0,1,1.051,1.7c.035,7.758.123,15.516.188,23.27,0,.315-.035.634-.072,1.144-.47-.242-.794-.4-1.093-.573q-3.834-2.271-7.668-4.545v.044q-5.957-3.532-11.93-7.037a2.209,2.209,0,0,1-1.287-2.17c-.017-7.514-.109-15.028-.172-22.542,0-.472.03-.945.054-1.585.484.224.832.358,1.147.544l12.041,7.13v.036Q78.58,68.854,82.452,71.142ZM494.981,177.3c.573.3,1,.5,1.4.742,6.469,3.83,12.922,7.684,19.417,11.475a2.2,2.2,0,0,1,1.261,2.183c.023,7.519.115,15.04.18,22.56,0,.47-.035.939-.065,1.586-.574-.3-1-.5-1.4-.738-6.47-3.833-12.927-7.686-19.418-11.481a2.2,2.2,0,0,1-1.26-2.181c-.02-7.522-.112-15.041-.177-22.558C494.912,178.413,494.952,177.947,494.981,177.3Zm0-2.145q.123-11.63.255-23.259a1.57,1.57,0,0,1,.8-1.565q10.351-6.067,20.681-12.18a5.381,5.381,0,0,1,.611-.238c.03.529.073.906.067,1.282-.086,7.655-.184,15.313-.254,22.966a1.784,1.784,0,0,1-.913,1.8c-6.784,3.957-13.54,7.963-20.305,11.952-.207.121-.434.214-.8.4A9.277,9.277,0,0,1,494.978,175.151Zm21.594,13.778c-6.779-3.878-13.587-7.7-20.383-11.55-.249-.141-.476-.321-.848-.57a9.166,9.166,0,0,1,.954-.716c6.677-3.76,13.368-7.5,20.036-11.283a2.017,2.017,0,0,1,2.279-.059c6.694,3.829,13.419,7.6,20.127,11.4.29.162.556.368,1.1.727-.637.366-1.044.611-1.459.839q-9.832,5.528-19.66,11.057A1.892,1.892,0,0,1,516.572,188.929Zm-.071-79.1c-6.561-3.763-13.162-7.462-19.745-11.186-.372-.212-.724-.46-1.221-.78.4-.29.68-.538,1-.717,6.68-3.763,13.368-7.5,20.034-11.291a2,2,0,0,1,2.277-.027c6.648,3.808,13.331,7.559,20,11.334.33.184.637.414,1.209.793l-1.485.856c-6.514,3.653-13.039,7.291-19.533,10.98A2.232,2.232,0,0,1,516.5,109.83Zm.784-26.674a1.774,1.774,0,0,1-.909,1.8c-6.788,3.961-13.551,7.968-20.322,11.958-.2.122-.429.206-.786.375a9.04,9.04,0,0,1-.142-1.172c.081-7.711.194-15.423.24-23.134a2.013,2.013,0,0,1,1.17-1.957c6.661-3.889,13.3-7.825,19.942-11.736.246-.146.516-.247.99-.465.032.587.072.967.069,1.344C517.453,67.831,517.356,75.5,517.285,83.156Zm-.108,28.27c.074,8.359.15,16.775.229,25.514-7.507-4.445-14.743-8.732-22.063-13.067q-.115-12.644-.232-25.308C496.242,98.808,514.794,109.643,517.177,111.426ZM495.62,125.118q10.365,5.9,20.746,11.756c.16.094.3.227.657.507-.6.347-1.011.591-1.434.828-6.5,3.658-13.022,7.294-19.5,11a2.317,2.317,0,0,1-2.663,0c-6.51-3.745-13.063-7.414-19.6-11.113-.374-.211-.727-.458-1.235-.781a10.341,10.341,0,0,1,.865-.627q10.2-5.733,20.411-11.472A1.582,1.582,0,0,1,495.62,125.118Zm-46.288,52.141c7.481,4.378,14.7,8.7,22,13.02.077,8.455.154,16.881.231,25.6-.741-.415-1.17-.643-1.586-.891-6.384-3.784-12.757-7.591-19.164-11.331a2.3,2.3,0,0,1-1.359-2.272c0-7.42-.1-14.842-.167-22.264C449.285,178.6,449.312,178.079,449.332,177.259Zm-.04-2.438c.083-7.612.18-15.218.252-22.824a1.778,1.778,0,0,1,.9-1.8c6.822-3.981,13.618-8.015,20.428-12.029.166-.1.347-.165.645-.3a5.014,5.014,0,0,1,.182.96c-.079,7.848-.181,15.7-.251,23.548a1.589,1.589,0,0,1-.9,1.514q-10.161,5.952-20.305,11.947a9.28,9.28,0,0,1-.883.394C449.33,175.665,449.286,175.243,449.292,174.821ZM470.658,188.8c-6.557-3.759-13.151-7.456-19.73-11.178-.371-.211-.723-.457-1.231-.781.45-.306.777-.565,1.13-.768q10.016-5.629,20.03-11.258a1.794,1.794,0,0,1,2.012-.086c6.776,3.872,13.577,7.695,20.368,11.539.246.137.468.314.936.639-.594.339-.967.56-1.348.77-6.592,3.7-13.195,7.391-19.767,11.127A2.111,2.111,0,0,1,470.658,188.8Zm1.612,2.658a2.018,2.018,0,0,1,1.168-1.96c6.661-3.888,13.3-7.82,19.942-11.735.245-.145.517-.245.991-.465.031.586.071.966.068,1.344-.085,7.661-.185,15.324-.243,22.987a1.892,1.892,0,0,1-1.043,1.868q-9.988,5.841-19.939,11.743c-.289.168-.6.306-1.073.546-.045-.528-.112-.934-.109-1.341C472.116,206.785,472.224,199.123,472.27,191.462Zm22.13-15.094c-.645-.358-1.074-.586-1.492-.835-6.421-3.8-12.832-7.628-19.277-11.395a2.206,2.206,0,0,1-1.28-2.172c-.018-7.517-.111-15.026-.174-22.545,0-.467.034-.936.06-1.579.485.228.832.363,1.148.551q9.949,5.891,19.9,11.782a1.647,1.647,0,0,1,1.026,1.566c.037,7.86.125,15.713.194,23.567C494.505,175.584,494.451,175.86,494.4,176.368Zm-22.164-40.993c.085-7.566.189-15.128.244-22.7a2.112,2.112,0,0,1,1.155-2.111c6.626-3.851,13.218-7.762,19.82-11.654.288-.169.6-.3,1.023-.524a6.263,6.263,0,0,1,.174,1.017c-.083,7.806-.182,15.616-.254,23.427a1.678,1.678,0,0,1-.907,1.653q-10.173,5.965-20.314,11.978c-.205.121-.431.2-.878.407C472.271,136.226,472.234,135.8,472.236,135.375Zm22.345-38.07c-3.817-2.056-7.376-4.308-11-6.431-3.66-2.146-7.3-4.325-10.975-6.51-.079-8.455-.154-16.849-.233-25.442a10.42,10.42,0,0,1,1.143.487q10.02,5.926,20.041,11.859a1.536,1.536,0,0,1,.9,1.49c.047,7.907.131,15.819.2,23.727C494.658,96.675,494.622,96.868,494.581,97.305ZM473.153,85.773c6.65,3.808,13.331,7.561,20,11.332.33.186.634.416,1.183.778-1.234.712-2.238,1.3-3.253,1.868-5.872,3.3-11.763,6.578-17.614,9.916a2.439,2.439,0,0,1-2.793.044c-6.468-3.73-12.982-7.377-19.481-11.057-.414-.235-.814-.493-1.347-.82a8.224,8.224,0,0,1,.864-.677c6.72-3.785,13.455-7.55,20.161-11.358A2.012,2.012,0,0,1,473.153,85.773Zm-1.5-2.445a1.578,1.578,0,0,1-.8,1.56q-10.358,6.06-20.684,12.173a4.359,4.359,0,0,1-.6.227c-.029-.538-.069-.918-.064-1.292.084-7.657.184-15.309.25-22.966a1.786,1.786,0,0,1,.934-1.784q10.172-5.946,20.3-11.957c.207-.123.434-.213.762-.369a5.958,5.958,0,0,1,.161,1C471.827,67.724,471.728,75.527,471.652,83.328ZM449.537,98.235c7.421,4.395,14.667,8.69,22,13.038.077,8.447.155,16.882.235,25.484a6.263,6.263,0,0,1-1-.36q-10.149-6-20.293-12.019a1.438,1.438,0,0,1-.858-1.365c-.044-8.007-.125-16.016-.192-24.024C449.436,98.848,449.473,98.705,449.537,98.235Zm.725,27.077c6.651,3.808,13.332,7.561,20,11.336.329.186.634.412,1.213.794-.657.377-1.068.619-1.484.853-6.516,3.655-13.039,7.292-19.533,10.982a2.225,2.225,0,0,1-2.532.04c-6.562-3.763-13.162-7.465-19.747-11.188-.373-.212-.727-.456-1.224-.774a11.444,11.444,0,0,1,1-.721c6.681-3.761,13.368-7.5,20.032-11.29A2.009,2.009,0,0,1,450.262,125.312Zm-45.788,52.369q10.206,6.036,20.405,12.08a1.444,1.444,0,0,1,.846,1.377q.075,12,.19,24a5.481,5.481,0,0,1-.1.656c-.523-.265-.91-.441-1.276-.658-6.548-3.874-13.09-7.772-19.653-11.63a1.862,1.862,0,0,1-1.1-1.822c-.032-7.711-.12-15.418-.188-23.124,0-.341.027-.679.047-1.138A3.881,3.881,0,0,1,404.474,177.681Zm-.817-2.9c.084-7.518.189-15.03.239-22.547a2.236,2.236,0,0,1,1.229-2.22c6.544-3.8,13.05-7.662,19.572-11.5.363-.214.751-.384,1.3-.663.03.634.076,1.1.071,1.565-.084,7.517-.189,15.032-.237,22.549a2.226,2.226,0,0,1-1.238,2.207c-6.5,3.787-12.958,7.628-19.432,11.456-.4.235-.808.463-1.424.819C403.7,175.713,403.657,175.245,403.657,174.778ZM424.9,188.717c-6.559-3.757-13.152-7.458-19.73-11.183-.364-.209-.7-.467-1.237-.828.576-.333.981-.567,1.388-.8,6.593-3.7,13.2-7.383,19.769-11.123a2,2,0,0,1,2.271,0c6.6,3.782,13.236,7.5,19.859,11.249.365.209.7.466,1.171.781-.489.315-.834.563-1.2.772-6.586,3.707-13.188,7.4-19.757,11.137A2.232,2.232,0,0,1,424.9,188.717Zm1.743,2.668a1.683,1.683,0,0,1,.92-1.646q10.17-5.951,20.3-11.958c.208-.121.431-.218.8-.4a9.155,9.155,0,0,1,.137,1.146c-.08,7.752-.18,15.5-.252,23.26a1.569,1.569,0,0,1-.785,1.568q-10.419,6.1-20.813,12.241a3.015,3.015,0,0,1-.493.149c-.028-.446-.069-.773-.065-1.1C426.484,206.894,426.581,199.14,426.647,191.385Zm.119-28.029q-.12-12.628-.235-25.295c1.107.215,19.478,10.929,22.067,12.845.073,8.355.15,16.774.228,25.53C441.281,171.962,434.068,167.682,426.766,163.356Zm-.223-27.6c.081-7.809.188-15.616.245-23.424a1.91,1.91,0,0,1,1.168-1.809q8.918-5.2,17.814-10.446c.96-.564,1.929-1.113,3.144-1.813.02.73.046,1.208.04,1.683-.084,7.564-.186,15.127-.239,22.693a1.907,1.907,0,0,1-1.039,1.876c-6.661,3.887-13.3,7.821-19.942,11.737-.287.173-.595.307-1.016.517A6.264,6.264,0,0,1,426.543,135.751Zm22.381-38.372c-.646-.36-1.073-.587-1.488-.835-6.425-3.8-12.835-7.628-19.28-11.395a2.207,2.207,0,0,1-1.287-2.17c-.017-7.514-.109-15.028-.172-22.542,0-.472.03-.945.054-1.585.483.224.832.358,1.147.544q9.951,5.891,19.9,11.783a1.659,1.659,0,0,1,1.031,1.565c.036,7.855.124,15.709.191,23.567C449.025,96.588,448.974,96.868,448.924,97.379ZM427.353,85.724q10.233,5.826,20.5,11.6c.2.116.387.271.773.544-.478.311-.787.538-1.119.722q-10.014,5.63-20.021,11.265a1.9,1.9,0,0,1-2.142.041c-6.732-3.843-13.494-7.645-20.243-11.461-.246-.139-.475-.314-.851-.563a9.68,9.68,0,0,1,.94-.7q10.14-5.7,20.279-11.4A1.686,1.686,0,0,1,427.353,85.724Zm-1.381-2.6a1.9,1.9,0,0,1-1.058,1.863c-6.7,3.913-13.372,7.864-20.056,11.8-.251.147-.517.263-.89.444a6.165,6.165,0,0,1-.165-1q.125-11.707.256-23.406a1.589,1.589,0,0,1,.809-1.56Q415.226,65.2,425.552,59.09a5.056,5.056,0,0,1,.6-.228c.032.541.073.919.07,1.3C426.133,67.813,426.029,75.471,425.972,83.125Zm-20.79,15.912q9.829,5.815,19.662,11.639a1.755,1.755,0,0,1,1.038,1.7c.038,7.766.123,15.528.193,23.29,0,.29-.022.582-.032.836a1.566,1.566,0,0,1-.168.109c-.04.016-.1.046-.13.03a8.536,8.536,0,0,1-.788-.381q-10.452-6.19-20.935-12.409c-.076-8.455-.155-16.842-.231-25.53C404.43,98.65,404.82,98.82,405.182,99.037Zm-.5,26.287c6.607,3.776,13.248,7.51,19.872,11.254.334.189.644.42,1.225.794-.649.372-1.059.618-1.473.85q-9.836,5.524-19.66,11.055a1.9,1.9,0,0,1-2.145.139c-6.779-3.875-13.584-7.7-20.378-11.549-.25-.139-.477-.319-.841-.567a9.972,9.972,0,0,1,.961-.72c6.674-3.757,13.369-7.5,20.028-11.287A2.13,2.13,0,0,1,404.683,125.324Zm-45.608,78.008c-.319-.209-.585-.389-.792-.536-.075-8.377-.152-16.755-.233-25.5,4.119,2.44,8.144,4.828,12.135,7.195v-.051l9.828,5.827q.118,12.628.235,25.282c-.532-.093-5.063-2.62-9.916-5.438V210C366.567,207.771,362.828,205.556,359.075,203.332Zm.565-27.886c-.222.131-.448.26-.7.405-.216.115-.456.228-.8.393-.036-.606-.074-1.006-.066-1.4.08-7.563.189-15.123.234-22.689a2.238,2.238,0,0,1,1.267-2.2q5.387-3.139,10.758-6.316v-.079q4.45-2.625,8.9-5.251c.281-.168.6-.281,1.04-.487.046.485.111.85.108,1.21-.085,7.712-.183,15.423-.249,23.132a1.8,1.8,0,0,1-.949,1.779q-4.506,2.629-9,5.282v-.007Q364.911,172.331,359.64,175.446ZM379.347,188.8q-4.5-2.582-9.015-5.127v-.028q-5.448-3.081-10.9-6.161c-.276-.159-.531-.362-1-.687.121-.089.225-.169.328-.249.4-.229.687-.4.977-.56q5.3-2.982,10.6-5.961v-.078q4.539-2.554,9.073-5.122a2,2,0,0,1,2.276-.034c6.648,3.806,13.331,7.561,20,11.335.33.185.636.413,1.216.793-.66.379-1.07.619-1.485.856-6.513,3.653-13.037,7.291-19.534,10.98A2.23,2.23,0,0,1,379.347,188.8Zm1.614,2.641a1.784,1.784,0,0,1,.94-1.781c6.739-3.94,13.452-7.92,20.173-11.883.25-.149.521-.263.943-.473.04.509.107.92.1,1.332-.084,7.654-.185,15.311-.252,22.968a1.78,1.78,0,0,1-.926,1.788c-6.785,3.959-13.546,7.96-20.311,11.944-.208.121-.434.21-.861.413-.027-.585-.063-.964-.058-1.341C380.8,206.757,380.9,199.1,380.961,191.445ZM403.106,176.3c-.461-.224-.809-.363-1.128-.55q-9.955-5.9-19.918-11.788a1.77,1.77,0,0,1-1.01-1.724c-.039-7.762-.128-15.526-.193-23.291-.005-.324.042-.651.076-1.125.417.2.723.314,1,.474q10.017,5.937,20.041,11.866a1.761,1.761,0,0,1,1.014,1.722c.041,7.764.128,15.523.2,23.287C403.187,175.5,403.141,175.824,403.106,176.3Zm-22.184-40.887c.082-7.609.185-15.215.244-22.824a1.892,1.892,0,0,1,1-1.9c6.654-3.884,13.281-7.819,19.921-11.736.321-.188.672-.334,1.172-.586.026.608.069,1.076.063,1.545-.081,7.508-.191,15.018-.235,22.53a2.213,2.213,0,0,1-1.255,2.19c-6.49,3.784-12.95,7.622-19.421,11.435-.405.24-.816.473-1.4.811C380.97,136.248,380.918,135.831,380.922,135.414Zm.359-51.052c-.078-8.5-.154-16.889-.231-25.219a1.463,1.463,0,0,1,.218-.121A.2.2,0,0,1,381.4,59c.264.126.533.244.785.387L403.113,71.8c.077,8.47.152,16.886.232,25.64C395.848,93,388.612,88.708,381.281,84.362Zm.393,1.307c6.816,3.9,13.662,7.744,20.493,11.61.2.116.386.27.711.5a10.945,10.945,0,0,1-.953.693q-10.074,5.675-20.146,11.346a1.8,1.8,0,0,1-2.018.1q-4.709-2.692-9.429-5.357v-.039Q365.1,101.56,359.858,98.6c-.372-.214-.723-.462-1.229-.787.359-.259.6-.472.868-.624q5.415-3.045,10.835-6.091v-.078q4.665-2.619,9.329-5.24A1.791,1.791,0,0,1,381.674,85.669Zm-1.337-2.5a1.9,1.9,0,0,1-1.021,1.885q-4.572,2.674-9.131,5.37v-.012q-5.259,3.1-10.511,6.214c-.154.09-.31.181-.472.274-.235.126-.486.245-.8.4a9.1,9.1,0,0,1-.131-1.151c.082-7.713.181-15.422.253-23.135a1.792,1.792,0,0,1,.922-1.8q5.452-3.181,10.883-6.388v-.059l5.157-3.026c1.593-.935,3.2-1.848,5.015-2.89.037.57.086.951.082,1.324C380.5,67.843,380.4,75.506,380.337,83.169ZM358.3,98.462l.268.083c.361.179.687.339.981.514q5.316,3.15,10.64,6.3v-.039q4.6,2.725,9.2,5.447a1.45,1.45,0,0,1,.861,1.367c.046,8.005.125,16,.189,24.007a6.1,6.1,0,0,1-.1.665c-.518-.264-.909-.433-1.268-.646q-4.37-2.587-8.737-5.18v-.029q-5.459-3.234-10.923-6.46a1.776,1.776,0,0,1-1-1.736c-.042-7.7-.126-15.413-.191-23.121C358.216,99.287,358.258,98.941,358.3,98.462Zm-.008,26.588a2.18,2.18,0,0,1,.476.2q5.7,3.26,11.421,6.485v-.042q4.382,2.478,8.764,4.953c.328.183.633.405,1.078.7-.433.292-.72.526-1.04.706q-4.4,2.475-8.8,4.952v0q-5.686,3.193-11.371,6.393a3.683,3.683,0,0,1-.411.195,1.984,1.984,0,0,1-.253.079c-.016,0-.032.007-.048.011a1.572,1.572,0,0,1-.672-.009,2.141,2.141,0,0,1-.481-.2c-6.778-3.867-13.579-7.69-20.37-11.534-.245-.138-.464-.319-.835-.575.443-.3.769-.558,1.125-.763q10.015-5.628,20.03-11.256a2.46,2.46,0,0,1,.939-.341h.018A1.772,1.772,0,0,1,358.288,125.05Zm-41.649,54.733c5.4,3.2,10.79,6.409,16.21,9.575.15.095.293.185.426.271a2.166,2.166,0,0,1,1.1,2.067c.023,7.519.114,15.04.179,22.56,0,.452-.032.906-.061,1.514-.5-.256-.9-.447-1.261-.666-6.47-3.833-12.926-7.686-19.418-11.481a2.2,2.2,0,0,1-1.259-2.181c-.02-7.522-.112-15.041-.177-22.558-.006-.413.025-.83.052-1.363C312.988,177.757,314.567,178.614,316.639,179.783Zm-4.2-4.632q.123-11.63.254-23.259a1.57,1.57,0,0,1,.8-1.565q10.352-6.067,20.68-12.18a3.084,3.084,0,0,1,.468-.185c.03.5.069.867.063,1.229-.085,7.655-.184,15.313-.253,22.966a1.843,1.843,0,0,1-.605,1.577c-.053.042-.106.084-.168.124-.046.032-.089.064-.141.095-6.784,3.957-13.54,7.963-20.3,11.952-.128.074-.276.145-.446.226l-.219.1A8.119,8.119,0,0,1,312.438,175.151Zm21.923,13.933c-.02-.006-.042-.017-.062-.025a2.245,2.245,0,0,1-.267-.13c-6.779-3.878-13.587-7.7-20.383-11.55-.25-.141-.477-.321-.848-.57a9.163,9.163,0,0,1,.953-.716c6.678-3.76,13.369-7.5,20.036-11.283a2.526,2.526,0,0,1,1.1-.367,2.118,2.118,0,0,1,1.03.308c6.693,3.829,13.418,7.6,20.127,11.4.278.155.54.355,1.037.687-.451.291-.777.523-1.114.719-.1.055-.191.108-.286.16q-9.831,5.528-19.659,11.057a5.207,5.207,0,0,1-.475.242,1.671,1.671,0,0,1-.985.129A1.756,1.756,0,0,1,334.361,189.084Zm1.826-50.754q10.092,5.965,20.165,11.943a1.427,1.427,0,0,1,.9,1.338c.041,8.059.118,16.111.182,24.168a2.031,2.031,0,0,1-.107.416c-3.7-2.011-7.23-4.227-10.817-6.333-3.657-2.146-7.3-4.329-10.968-6.5-.077-8.45-.154-16.818-.23-25.359A4.966,4.966,0,0,1,336.187,138.33Zm-.859-2.9c.086-7.655.184-15.312.25-22.969a1.782,1.782,0,0,1,.948-1.773c6.737-3.937,13.451-7.92,20.172-11.885.217-.126.462-.233.773-.385a8.372,8.372,0,0,1,.117,1.115c-.08,7.707-.184,15.412-.248,23.111a1.787,1.787,0,0,1-.941,1.787c-6.77,3.953-13.518,7.947-20.279,11.925-.2.106-.417.2-.74.346C335.356,136.156,335.323,135.789,335.328,135.429Zm.087,56.271a2.235,2.235,0,0,1,1.262-2.2c6.447-3.754,12.863-7.556,19.289-11.343q.63-.36,1.3-.745a4.648,4.648,0,0,1,.182.959q-.118,11.781-.258,23.568a2.893,2.893,0,0,1-.023.289,2.122,2.122,0,0,1-1.009,1.32q-10.219,6-20.416,12.034a2.962,2.962,0,0,1-.475.179c-.013-.057-.027-.11-.041-.166-.021-.523-.047-.94-.041-1.351C335.262,206.732,335.37,199.219,335.415,191.7Zm17.948-96.837q-8.364-4.952-16.73-9.9l-.246-.16a1.4,1.4,0,0,1-.718-1.286c-.047-8.007-.126-16.014-.191-24.021a2.834,2.834,0,0,1,.052-.425c.535.213,2,1,3.937,2.074,5.855,3.47,11.637,6.9,17.455,10.348.193.128.364.244.506.344.079,8.39.155,16.765.236,25.277A44.312,44.312,0,0,1,353.363,94.863Zm-17.746-9.272a2.8,2.8,0,0,1,.537.238c6.649,3.808,13.332,7.559,20,11.334.314.175.613.394,1.13.739-.421.284-.724.51-1.031.695l-.374.215c-6.412,3.595-12.832,7.177-19.225,10.806l-.314.177a3.829,3.829,0,0,1-.627.289l-.031.009a2.09,2.09,0,0,1-.457.087,2.319,2.319,0,0,1-1.265-.35c-6.562-3.763-13.162-7.462-19.746-11.186-.371-.212-.723-.46-1.22-.78.4-.29.679-.538,1-.717,6.679-3.763,13.367-7.5,20.034-11.291a2.547,2.547,0,0,1,1-.345A2.092,2.092,0,0,1,335.617,85.591Zm-1.02-2.435a2.326,2.326,0,0,1-.228,1.138,2.026,2.026,0,0,1-.73.69c-6.727,3.926-13.43,7.9-20.14,11.852-.186.1-.394.2-.636.323l-.145.067a7.872,7.872,0,0,1-.133-1.11c.081-7.711.195-15.423.241-23.134A2.011,2.011,0,0,1,314,71.025c6.661-3.889,13.3-7.825,19.942-11.736a8.814,8.814,0,0,1,.847-.4c.031.549.068.918.065,1.28C334.766,67.831,334.668,75.5,334.6,83.156ZM321.62,103.623l9,5.333c1.882,1.147,3.318,2.055,3.872,2.47.073,8.231.148,16.522.226,25.119a45.012,45.012,0,0,1-4.394-2.3l-16.7-9.889c-.334-.218-.612-.405-.824-.556q-.115-12.585-.231-25.188C313.476,98.977,317.354,101.15,321.62,103.623Zm-9.043,21.349a1.786,1.786,0,0,1,.356.146q10.363,5.9,20.745,11.756a5.832,5.832,0,0,1,.561.43,6.788,6.788,0,0,1-.751.57l-.1.057-2.371,1.336q-6.721,3.775-13.434,7.569c-1.429.807-2.861,1.608-4.288,2.416a2.647,2.647,0,0,1-1.095.351,2.569,2.569,0,0,1-1.319-.4c-6.511-3.745-13.063-7.414-19.6-11.113-.374-.211-.728-.458-1.236-.781a10.509,10.509,0,0,1,.865-.627q10.206-5.733,20.412-11.472a2.467,2.467,0,0,1,.661-.263A1.708,1.708,0,0,1,312.577,124.972Zm-45.789,52.412.393.191c7.122,4.173,14.015,8.3,20.979,12.414a1.526,1.526,0,0,1,.493.762c.074,8.1.147,16.174.221,24.51-.015.148-.031.309-.048.5-.613-.341-1.012-.555-1.386-.779-6.384-3.784-12.756-7.591-19.163-11.331a2.3,2.3,0,0,1-1.36-2.272c0-7.42-.1-14.842-.166-22.264C266.745,178.628,266.769,178.128,266.788,177.384Zm-.036-2.563c.082-7.612.179-15.218.251-22.824a1.78,1.78,0,0,1,.9-1.8c6.822-3.981,13.619-8.015,20.429-12.029a5.521,5.521,0,0,1,.511-.244,4.288,4.288,0,0,1,.169.9c-.08,7.848-.182,15.7-.251,23.548a1.693,1.693,0,0,1-.213.869c-.024.041-.059.078-.087.117a1.977,1.977,0,0,1-.6.528q-10.161,5.952-20.3,11.947a6.79,6.79,0,0,1-.741.334C266.786,175.638,266.746,175.227,266.752,174.821ZM288.118,188.8c-6.558-3.759-13.151-7.456-19.731-11.178-.371-.211-.722-.457-1.23-.781.45-.306.776-.565,1.13-.768q10.016-5.629,20.03-11.258a2.521,2.521,0,0,1,.938-.342,1.8,1.8,0,0,1,.447.056,2.148,2.148,0,0,1,.48.2c6.776,3.872,13.577,7.695,20.368,11.539.229.128.446.3.852.58-.393.275-.674.5-.978.669l-.286.16q-8.976,5.043-17.943,10.1c-.618.349-1.238.7-1.856,1.044a3.318,3.318,0,0,1-.551.249l-.076.022a1.9,1.9,0,0,1-.366.06A2.285,2.285,0,0,1,288.118,188.8Zm1.612,2.658a2.017,2.017,0,0,1,1.168-1.96c6.661-3.888,13.3-7.82,19.942-11.735a8.817,8.817,0,0,1,.814-.385c.016.089.032.164.049.245.026.409.051.717.049,1.019-.085,7.661-.186,15.324-.243,22.987a1.894,1.894,0,0,1-1.043,1.868q-9.988,5.841-19.94,11.743c-.245.143-.512.268-.878.449l-.055.026c-.045-.491-.105-.884-.1-1.27C289.575,206.785,289.683,199.123,289.73,191.462Zm21.991-15.171c-.565-.312-.968-.528-1.353-.758-6.421-3.8-12.832-7.628-19.278-11.395a2.207,2.207,0,0,1-1.279-2.172c-.018-7.517-.111-15.026-.175-22.545,0-.45.032-.906.057-1.513a11.08,11.08,0,0,1,1,.485q9.948,5.891,19.9,11.782a1.647,1.647,0,0,1,1.026,1.566c.037,7.86.125,15.713.193,23.567C311.818,175.569,311.77,175.836,311.721,176.291ZM289.7,135.375c.085-7.566.189-15.128.243-22.7a2.115,2.115,0,0,1,1.155-2.111c6.627-3.851,13.218-7.762,19.821-11.654.253-.149.539-.28.89-.458a5.3,5.3,0,0,1,.159.951c-.082,7.806-.182,15.616-.253,23.427a2.134,2.134,0,0,1-.177.9c-.025.05-.056.1-.086.145a1.5,1.5,0,0,1-.138.184,1.733,1.733,0,0,1-.124.136,2.215,2.215,0,0,1-.383.284q-4.216,2.474-8.42,4.965-2.392,1.411-4.785,2.821-3.421,2.02-6.846,4.037c-.25.138-.528.272-.866.44l-.131.058C289.728,136.2,289.694,135.785,289.7,135.375Zm22.2-38.147c-3.763-2.036-7.281-4.257-10.865-6.354-3.66-2.146-7.3-4.325-10.975-6.51-.078-8.435-.153-16.811-.232-25.384a7.815,7.815,0,0,1,1,.429q10.02,5.926,20.041,11.859a1.538,1.538,0,0,1,.9,1.49c.047,7.907.131,15.819.2,23.727C311.97,96.662,311.939,96.85,311.9,97.228Zm-21.981-11.7a2.813,2.813,0,0,1,.545.241c6.65,3.808,13.332,7.561,20,11.332.3.17.591.382,1.058.695a8.068,8.068,0,0,1-.643.527c-.492.284-.951.55-1.395.805l-4.308,2.424q-5.208,2.921-10.4,5.856-2.1,1.18-4.191,2.359a2.876,2.876,0,0,1-1.073.345,2.6,2.6,0,0,1-1.374-.405c-6.468-3.73-12.982-7.377-19.48-11.057-.394-.223-.782-.472-1.277-.776l-.061-.052a7.888,7.888,0,0,1,.855-.669c6.719-3.785,13.454-7.55,20.161-11.358a2.752,2.752,0,0,1,.81-.308A2.108,2.108,0,0,1,289.92,85.532Zm-.955-2.2a1.58,1.58,0,0,1-.8,1.56q-10.358,6.06-20.684,12.173c-.012.007-.025.012-.037.018-.1.044-.218.081-.422.153-.029-.507-.065-.876-.061-1.236.085-7.657.185-15.309.251-22.966a1.785,1.785,0,0,1,.934-1.784q10.17-5.946,20.3-11.957c.175-.1.376-.191.628-.307a5.089,5.089,0,0,1,.149.938C289.14,67.724,289.041,75.527,288.965,83.328Zm-21.98,14.987c7.373,4.367,14.576,8.637,21.867,12.958.077,8.431.155,16.851.235,25.437a4.543,4.543,0,0,1-.847-.313q-10.149-6-20.294-12.019a1.437,1.437,0,0,1-.857-1.365c-.045-8.007-.126-16.016-.193-24.024A6.19,6.19,0,0,1,266.985,98.315Zm.031,26.751a2.879,2.879,0,0,1,.559.246c6.65,3.808,13.331,7.561,20,11.336.306.174.6.387,1.107.724-.367.269-.632.491-.917.659-.16.092-.312.18-.462.264q-8.352,4.686-16.7,9.382-1.449.816-2.9,1.63a2.743,2.743,0,0,1-1.081.365,2.328,2.328,0,0,1-1.24-.355c-6.562-3.763-13.162-7.465-19.746-11.188-.373-.212-.728-.456-1.224-.774a11.446,11.446,0,0,1,.994-.721c6.682-3.761,13.369-7.5,20.032-11.29a2.484,2.484,0,0,1,1.059-.358A2,2,0,0,1,267.016,125.066Zm-45.229,52.615q10.206,6.036,20.405,12.08a1.444,1.444,0,0,1,.845,1.377q.075,12,.191,24a4.3,4.3,0,0,1-.093.589c-.449-.225-.81-.395-1.14-.591-6.549-3.874-13.09-7.772-19.653-11.63a1.862,1.862,0,0,1-1.1-1.822c-.032-7.711-.12-15.418-.187-23.124,0-.331.024-.663.044-1.1A2.627,2.627,0,0,1,221.787,177.681Zm-.67-2.9c.083-7.518.189-15.03.239-22.547a2.235,2.235,0,0,1,1.229-2.22c6.543-3.8,13.05-7.662,19.571-11.5.329-.194.686-.356,1.156-.591.03.6.072,1.047.067,1.493-.084,7.517-.19,15.032-.237,22.549a2.227,2.227,0,0,1-1.238,2.207c-6.5,3.787-12.959,7.628-19.432,11.456-.368.216-.748.43-1.282.737C221.157,175.681,221.116,175.226,221.117,174.778Zm21.247,13.939c-6.56-3.757-13.152-7.458-19.73-11.183-.365-.209-.7-.467-1.237-.828.576-.333.981-.567,1.387-.8,6.594-3.7,13.2-7.383,19.77-11.123a2.359,2.359,0,0,1,1.06-.342,2.316,2.316,0,0,1,1.063.342c6.605,3.782,13.236,7.5,19.86,11.249.365.209.7.466,1.17.781-.489.315-.833.563-1.2.772-6.586,3.707-13.188,7.4-19.757,11.137a2.555,2.555,0,0,1-1.191.378A2.613,2.613,0,0,1,242.364,188.717Zm1.743,2.668a1.681,1.681,0,0,1,.92-1.646q10.17-5.951,20.3-11.958c.178-.1.384-.2.666-.335a7.828,7.828,0,0,1,.127,1.079c-.08,7.752-.18,15.5-.252,23.26a2.711,2.711,0,0,1-.087.67,1.79,1.79,0,0,1-.781.946q-10.377,6.078-20.73,12.193a1.6,1.6,0,0,1-.349.109c-.028-.423-.066-.744-.063-1.059C243.943,206.894,244.041,199.14,244.107,191.385Zm17.425-17.769c-5.849-3.468-11.553-6.852-17.307-10.26q-.119-12.6-.234-25.247c1.209.474,7.736,4.19,13.407,7.543v.039l5.011,2.969c1.671,1.024,2.949,1.837,3.5,2.246.071,8.222.147,16.51.224,25.116A46.437,46.437,0,0,1,261.532,173.616ZM244,135.751c.082-7.809.189-15.616.245-23.424a1.911,1.911,0,0,1,1.168-1.809q8.919-5.2,17.814-10.446c.916-.538,1.846-1.066,2.985-1.721.006.08.014.144.022.22.018.556.036.97.03,1.371-.084,7.564-.185,15.127-.238,22.693a1.909,1.909,0,0,1-1.039,1.876c-6.662,3.887-13.3,7.821-19.942,11.737-.253.152-.535.281-.883.452A5.268,5.268,0,0,1,244,135.751ZM266.245,97.3c-.565-.314-.967-.529-1.349-.758-6.426-3.8-12.835-7.628-19.28-11.395a2.208,2.208,0,0,1-1.288-2.17c-.017-7.514-.109-15.028-.172-22.542,0-.455.028-.914.051-1.52a10.626,10.626,0,0,1,1,.479q9.952,5.891,19.9,11.783a1.66,1.66,0,0,1,1.032,1.565c.035,7.855.123,15.709.191,23.567C266.337,96.572,266.292,96.844,266.245,97.3Zm-21.58-11.578q10.233,5.826,20.5,11.6c.206.116.388.271.774.544-.478.311-.788.538-1.119.722q-10.014,5.63-20.022,11.265a2.368,2.368,0,0,1-1,.34,2.031,2.031,0,0,1-1-.3c-6.731-3.843-13.493-7.645-20.242-11.461-.247-.139-.476-.314-.852-.563a9.93,9.93,0,0,1,.94-.7q10.141-5.7,20.28-11.4a2.182,2.182,0,0,1,.88-.3A1.751,1.751,0,0,1,244.665,85.724Zm-1.38-2.6a1.9,1.9,0,0,1-1.058,1.863c-6.7,3.913-13.373,7.864-20.057,11.8-.216.127-.457.237-.756.38a5.387,5.387,0,0,1-.152-.935q.126-11.707.257-23.406a1.588,1.588,0,0,1,.808-1.56Q232.686,65.2,243.012,59.09a2.915,2.915,0,0,1,.452-.176c.031.512.07.88.066,1.244C243.445,67.813,243.342,75.471,243.285,83.125ZM222.5,99.037q9.829,5.815,19.662,11.639a1.754,1.754,0,0,1,1.037,1.7c.038,7.766.124,15.528.194,23.29,0,.29-.022.582-.032.836a1.551,1.551,0,0,1-.169.109l-.025.01a7.749,7.749,0,0,1-.745-.361q-10.452-6.19-20.935-12.409c-.076-8.431-.155-16.795-.231-25.456C221.8,98.673,222.163,98.838,222.5,99.037Zm-.5,26.287c6.608,3.776,13.248,7.51,19.873,11.254.334.189.643.42,1.224.794-.648.372-1.059.618-1.472.85q-9.836,5.524-19.66,11.055a2.589,2.589,0,0,1-1.18.407,1.9,1.9,0,0,1-.819-.268c-6.778-3.875-13.583-7.7-20.378-11.549-.249-.139-.477-.319-.84-.567a9.969,9.969,0,0,1,.96-.72c6.675-3.757,13.37-7.5,20.029-11.287a2.358,2.358,0,0,1,1.13-.347A2.581,2.581,0,0,1,222,125.324Zm-43.239,79.41c-1.44-.888-2.554-1.6-3.113-2.008-.074-8.325-.151-16.714-.229-25.45,7.481,4.438,14.647,8.687,21.911,12.994q.119,12.6.235,25.236c-.965-.369-5.311-2.8-9.916-5.477V210Zm-3.327-29.982c.083-7.518.2-15.033.232-22.549a2.33,2.33,0,0,1,1.317-2.3c.586-.341,1.17-.688,1.756-1.03,6-3.5,11.975-7.038,17.959-10.562a8.909,8.909,0,0,1,.9-.425,11.49,11.49,0,0,1,.1,1.148c-.085,7.712-.183,15.423-.25,23.132a1.793,1.793,0,0,1-.948,1.779c-6.706,3.912-13.384,7.871-20.071,11.812-.252.151-.534.275-.957.477C175.447,175.589,175.424,175.167,175.429,174.752ZM196.807,188.8c-6.561-3.766-13.162-7.463-19.746-11.186-.372-.214-.727-.46-1.225-.779.4-.29.678-.541.993-.72,6.678-3.761,13.368-7.5,20.035-11.288a2.481,2.481,0,0,1,1.065-.36,2.191,2.191,0,0,1,1.064.326c6.649,3.806,13.332,7.561,20,11.335.331.185.637.413,1.217.793-.661.379-1.07.619-1.485.856-6.514,3.653-13.038,7.291-19.534,10.98a2.792,2.792,0,0,1-1.191.4A2.4,2.4,0,0,1,196.807,188.8Zm1.614,2.641a1.78,1.78,0,0,1,.94-1.781c6.739-3.94,13.451-7.92,20.173-11.883.217-.13.468-.243.8-.405.041.476.1.872.1,1.264-.083,7.654-.184,15.311-.251,22.968a1.781,1.781,0,0,1-.926,1.788c-6.785,3.959-13.547,7.96-20.312,11.944-.182.106-.385.192-.717.346-.027-.545-.059-.913-.054-1.274C198.255,206.757,198.355,199.1,198.421,191.445Zm22-15.21c-.387-.183-.705-.319-.987-.484q-9.957-5.9-19.919-11.788a1.772,1.772,0,0,1-1.01-1.724c-.039-7.762-.127-15.526-.192-23.291,0-.307.037-.625.07-1.061.34.155.617.27.857.41q10.017,5.937,20.04,11.866a1.763,1.763,0,0,1,1.015,1.722c.041,7.764.127,15.523.2,23.287C220.5,175.483,220.458,175.8,220.425,176.235Zm-22.043-40.821c.081-7.609.184-15.215.244-22.824a1.891,1.891,0,0,1,1-1.9c6.655-3.884,13.282-7.819,19.921-11.736.286-.167.612-.312,1.029-.516.026.571.065,1.026.06,1.475-.081,7.508-.192,15.018-.235,22.53a2.215,2.215,0,0,1-1.255,2.19c-6.491,3.784-12.951,7.622-19.421,11.435-.37.22-.752.437-1.259.73C198.425,136.215,198.378,135.812,198.382,135.414Zm.359-51.052c-.078-8.5-.155-16.889-.232-25.219a1.5,1.5,0,0,1,.219-.121c.007,0,.015,0,.023,0,.251.12.508.232.747.369q10.445,6.191,20.927,12.408c.077,8.441.152,16.83.232,25.553C213.213,92.939,206.023,88.679,198.741,84.362Zm.245,1.307c6.816,3.9,13.662,7.744,20.493,11.61.2.116.387.27.712.5a10.945,10.945,0,0,1-.953.693q-10.076,5.675-20.146,11.346a2.566,2.566,0,0,1-.944.351,1.731,1.731,0,0,1-.927-.252c-6.818-3.9-13.66-7.745-20.493-11.61-.189-.11-.368-.258-.74-.525.319-.233.549-.428.8-.571l.236-.136,3.5-1.967q8.3-4.657,16.6-9.324a2.609,2.609,0,0,1,.943-.359A1.694,1.694,0,0,1,198.986,85.669Zm-1.336-2.5a1.9,1.9,0,0,1-1.021,1.885c-6.66,3.894-13.293,7.831-19.936,11.75-.254.153-.538.282-.877.448a3.039,3.039,0,0,1-.183-.783c.078-7.909.186-15.813.245-23.721a1.868,1.868,0,0,1,.089-.587v0a2.049,2.049,0,0,1,1.061-1.074q7.967-4.66,15.921-9.339c1.55-.91,3.119-1.8,4.873-2.809.036.523.08.889.076,1.243C197.814,67.843,197.712,75.506,197.65,83.169ZM176.419,98.758q10.144,6,20.279,12.005a1.45,1.45,0,0,1,.861,1.367c.046,8.005.124,16,.189,24.007a4.739,4.739,0,0,1-.087.6c-.446-.223-.808-.387-1.133-.579-6.549-3.878-13.089-7.775-19.655-11.625a1.878,1.878,0,0,1-1.109-1.821c-.033-7.708-.121-15.417-.188-23.126,0-.326.02-.658.04-1.12A3.909,3.909,0,0,1,176.419,98.758Zm-.14,26.56c6.645,3.8,13.32,7.555,19.982,11.325.329.183.633.405,1.078.7-.433.292-.719.526-1.04.706q-10.074,5.667-20.151,11.337a2.158,2.158,0,0,1-.976.316,1.906,1.906,0,0,1-.89-.275c-6.733-3.844-13.493-7.645-20.238-11.462-.271-.151-.526-.345-.95-.636.389-.265.693-.495,1.008-.685.14-.081.275-.158.408-.233q9.24-5.187,18.473-10.384c.4-.224.8-.446,1.193-.67a2.5,2.5,0,0,1,1.039-.354A2.132,2.132,0,0,1,176.279,125.318Zm-38.084,56.9q4.28,2.538,8.571,5.059c2.021,1.219,3.66,2.234,4.516,2.812a1.868,1.868,0,0,1,.417.723c.077,8.179.152,16.431.229,25.025-.185-.1-.337-.172-.5-.253l-20.907-12.394a1.9,1.9,0,0,1-.573-.988c-.073-8.16-.149-16.271-.224-24.413,0-.09.009-.167.014-.263C130.643,177.9,134.192,179.894,138.2,182.213Zm-8.395-7.077q.123-11.625.253-23.259a1.573,1.573,0,0,1,.789-1.569q10.356-6.065,20.679-12.177l.033-.017c.1-.047.222-.088.442-.169.032.493.068.86.066,1.22-.085,7.7-.186,15.405-.25,23.112a1.685,1.685,0,0,1-.916,1.648q-10.23,5.988-20.43,12.025a5.055,5.055,0,0,1-.541.255A7.753,7.753,0,0,1,129.8,175.136Zm21.625,13.787c-6.825-3.9-13.671-7.749-20.512-11.619-.209-.121-.4-.266-.749-.5a8.7,8.7,0,0,1,.92-.71q10.082-5.68,20.166-11.349c.114-.064.222-.11.33-.16a1.814,1.814,0,0,1,1.176-.093,1.99,1.99,0,0,1,.369.152q10.17,5.8,20.382,11.544c.279.158.521.386.894.656-.485.313-.828.563-1.193.768q-9.959,5.6-19.913,11.2a2.476,2.476,0,0,1-1,.354A1.722,1.722,0,0,1,151.425,188.923Zm1.354,2.327a1.879,1.879,0,0,1,.051-.346,2.058,2.058,0,0,1,.839-1.169c.081-.053.156-.108.245-.16q7.964-4.657,15.918-9.338c1.545-.905,3.112-1.8,4.89-2.821.011.045.021.09.033.137.022.547.051.965.046,1.377-.085,7.513-.194,15.03-.238,22.545a2.236,2.236,0,0,1-1.26,2.2c-6.5,3.784-12.957,7.627-19.435,11.454-.319.188-.659.38-1.065.612l-.08.028a4.585,4.585,0,0,1-.189-.942C152.614,206.965,152.721,199.106,152.779,191.25Zm21.959-15c-.359-.195-.71-.4-1.067-.6L152.9,163.34c-.076-8.437-.153-16.8-.23-25.374.077.027.147.05.221.074a4.989,4.989,0,0,1,.771.341c6.683,3.95,13.356,7.921,20.043,11.856a1.538,1.538,0,0,1,.9,1.49c.05,7.91.134,15.818.2,23.729C174.813,175.631,174.782,175.818,174.738,176.251Zm-22.046-41.038c.081-7.508.193-15.018.236-22.529a2.22,2.22,0,0,1,1.25-2.195c6.452-3.757,12.863-7.569,19.292-11.364.216-.128.433-.254.669-.389.2-.109.428-.21.722-.356.042.549.091.943.086,1.326-.08,7.608-.183,15.214-.246,22.821a1.9,1.9,0,0,1-.98,1.911c-6.741,3.928-13.458,7.906-20.186,11.865a8.207,8.207,0,0,1-.81.383C152.708,136.05,152.686,135.632,152.692,135.213ZM167.156,92.78q-5.318-3.15-10.637-6.3c-1.427-.877-2.569-1.6-3.236-2.063a1.234,1.234,0,0,1-.231-.429c-.076-8.211-.154-16.495-.229-24.795.006-.043.011-.075.019-.129.808.321,3.717,1.925,7.187,3.913,4.119,2.441,8.214,4.868,12.319,7.3,1.091.679,1.946,1.231,2.444,1.586q.115,12.525.232,25.21C174.2,96.761,170.941,94.957,167.156,92.78Zm-13.477-6.875c6.523,3.732,13.078,7.409,19.619,11.111.409.232.8.5,1.357.846-.5.339-.836.6-1.2.8q-9.96,5.6-19.92,11.2a2.816,2.816,0,0,1-.814.313,1.99,1.99,0,0,1-.694-.035,2.337,2.337,0,0,1-.491-.209c-6.737-3.845-13.5-7.649-20.255-11.474-.261-.148-.5-.347-.908-.642.35-.257.614-.479.9-.645.083-.048.163-.093.243-.137,6.593-3.713,13.2-7.4,19.777-11.147a3.293,3.293,0,0,1,.626-.279c.042-.013.083-.017.124-.028a2.05,2.05,0,0,1,.373-.055A2.529,2.529,0,0,1,153.679,85.905Zm-1.716-2.774a1.9,1.9,0,0,1-1.04,1.874c-6.661,3.889-13.3,7.824-19.941,11.74-.255.148-.539.28-.9.461a8,8,0,0,1-.134-1.112c.082-7.712.183-15.423.249-23.133a1.986,1.986,0,0,1,.512-1.477c.015-.016.025-.034.041-.049a2.584,2.584,0,0,1,.386-.288c.046-.03.081-.062.13-.091,6.694-3.909,13.362-7.861,20.04-11.8.18-.1.388-.191.673-.318l.168-.069c.031.539.067.909.062,1.274C152.126,67.809,152.022,75.471,151.963,83.131ZM134.7,101.116l16.208,9.606q.606.392.936.63.112,12.575.233,25.163c-.82-.312-4.08-2.116-7.864-4.29l-10.878-6.444c-1.473-.908-2.613-1.638-3.177-2.049-.074-8.228-.15-16.528-.228-25.149C130.355,98.711,132.214,99.713,134.7,101.116Zm-4.175,24.113c6.69,3.826,13.407,7.6,20.112,11.393.29.167.561.361.979.628a8.01,8.01,0,0,1-.826.63q-10.2,5.748-20.4,11.5a2.761,2.761,0,0,1-.369.169,2.068,2.068,0,0,1-1.154-.048,2.251,2.251,0,0,1-.219-.1q-10.231-5.826-20.5-11.606c-.19-.106-.37-.253-.743-.523.315-.235.542-.425.783-.568.13-.074.254-.146.375-.214q9.995-5.614,19.988-11.234a2.391,2.391,0,0,1,.931-.317A1.963,1.963,0,0,1,130.527,125.229ZM85.321,178q9.834,5.816,19.662,11.639a1.761,1.761,0,0,1,1.057,1.7c.033,7.762.123,15.522.187,23.283,0,.307-.044.622-.088,1.137-7.156-4.239-14.148-8.384-21.18-12.551a1.974,1.974,0,0,1-.643-1.048c-.072-8.157-.147-16.274-.221-24.589,0-.063,0-.119,0-.186C84.631,177.645,84.992,177.805,85.321,178Zm-1.206-3.429c.083-7.459.19-14.918.233-22.381a2.234,2.234,0,0,1,1.235-2.206q6.883-4.005,13.733-8.079,2.987-1.764,5.974-3.527l.43-.247c.142-.076.3-.144.539-.253a9.268,9.268,0,0,1,.111,1.15c-.082,7.7-.183,15.405-.247,23.113a1.783,1.783,0,0,1-.966,1.768c-6.739,3.936-13.456,7.913-20.181,11.87-.218.129-.463.23-.834.4C84.129,175.5,84.107,175.038,84.115,174.571Zm22.049,14.537a2.334,2.334,0,0,1-.452-.2q-10.1-5.758-20.243-11.461c-.266-.152-.521-.343-.956-.635.409-.282.722-.521,1.049-.713.122-.071.242-.139.361-.206q9.823-5.512,19.646-11.042a2.591,2.591,0,0,1,1.058-.369,2.112,2.112,0,0,1,1.066.314c6.641,3.806,13.319,7.553,19.981,11.322.326.186.633.41,1.081.7-.421.292-.708.523-1.026.7q-10.077,5.671-20.148,11.336a2.551,2.551,0,0,1-.739.285A1.948,1.948,0,0,1,106.164,189.108Zm.931,2.483a2.128,2.128,0,0,1,.772-1.846c.084-.063.168-.127.266-.188.04-.025.075-.052.118-.077,6.667-3.876,13.3-7.817,19.945-11.733a4,4,0,0,1,.393-.2l.378-.168a5.568,5.568,0,0,1,.149.942c-.083,7.812-.181,15.62-.25,23.43a1.681,1.681,0,0,1-.91,1.65q-10.175,5.955-20.32,11.966c-.18.1-.384.189-.727.347-.027-.607-.063-1.023-.059-1.43C106.933,206.721,107.037,199.156,107.1,191.591Zm22-15.315c-.56-.311-.96-.525-1.343-.754-6.426-3.8-12.834-7.629-19.282-11.392a2.214,2.214,0,0,1-1.29-2.168c-.025-7.517-.113-15.024-.176-22.543,0-.456.027-.915.048-1.525a9.991,9.991,0,0,1,1,.469q9.952,5.892,19.906,11.78a1.771,1.771,0,0,1,1.036,1.711c.034,7.757.122,15.516.188,23.274C129.178,175.437,129.134,175.755,129.09,176.276ZM107.054,135.61c.082-7.714.181-15.424.255-23.133a2.568,2.568,0,0,1,.161-.966,1.658,1.658,0,0,1,.116-.2,1.476,1.476,0,0,1,.086-.126,2.065,2.065,0,0,1,.563-.5c6.743-3.935,13.46-7.915,20.186-11.872.155-.082.33-.174.519-.267l.314-.134c.009.045.018.084.028.129.019.543.043.937.039,1.324-.085,7.562-.188,15.126-.25,22.692a2.007,2.007,0,0,1-1.062,2.013c-6.62,3.857-13.212,7.779-19.813,11.671-.288.171-.609.317-1.012.517A9.275,9.275,0,0,1,107.054,135.61Zm21.091-38.979c-7.05-4.174-13.869-8.217-20.725-12.282-.074-8.386-.15-16.733-.228-25.406.335.14.6.239.837.347l20.705,12.269a1.346,1.346,0,0,1,.375.557c.074,8.325.15,16.6.23,25.181C128.935,97.08,128.544,96.853,128.145,96.631Zm-20.1-10.765c6.519,3.745,13.076,7.422,19.617,11.122.379.214.738.452,1.233.762a6.307,6.307,0,0,1-.808.657q-10.206,5.754-20.421,11.494a3.189,3.189,0,0,1-.3.142,2.137,2.137,0,0,1-1.321-.059Q95.62,104.046,85.17,98.14a4.177,4.177,0,0,1-.467-.375c.2-.166.377-.308.538-.432a4.14,4.14,0,0,1,.378-.248c6.3-3.544,12.606-7.069,18.89-10.644.341-.194.683-.385,1.025-.579a3.586,3.586,0,0,1,.644-.291l.085-.025a2.192,2.192,0,0,1,.392-.064A2.523,2.523,0,0,1,108.043,85.866Zm-1.717-2.544a1.574,1.574,0,0,1-.815,1.55Q95.155,90.937,84.825,97.049a3.3,3.3,0,0,1-.452.169c-.028-.518-.062-.889-.055-1.254.084-7.656.184-15.312.247-22.968a1.788,1.788,0,0,1,.949-1.777c6.738-3.937,13.453-7.919,20.176-11.882.214-.125.456-.235.749-.375a5.666,5.666,0,0,1,.143.95C106.5,67.712,106.4,75.518,106.326,83.322ZM84.344,98.3c7.372,4.369,14.578,8.638,21.867,12.959.078,8.427.157,16.849.236,25.433a4.421,4.421,0,0,1-.847-.313q-10.149-6-20.293-12.016a1.442,1.442,0,0,1-.859-1.367c-.043-8.008-.122-16.016-.187-24.023A5.584,5.584,0,0,1,84.344,98.3Zm.732,27.079c6.567,3.759,13.166,7.461,19.748,11.187.369.208.719.456,1.214.777a12.4,12.4,0,0,1-1.009.726q-10.087,5.67-20.177,11.335a3.5,3.5,0,0,1-.425.206,1.97,1.97,0,0,1-1.134-.032,1.658,1.658,0,0,1-.18-.073q-4.12-2.351-8.255-4.676v.034q-5.952-3.369-11.907-6.73c-.372-.212-.727-.456-1.224-.774a11.444,11.444,0,0,1,1-.721q6.069-3.417,12.136-6.83v0q3.919-2.206,7.834-4.421a2.61,2.61,0,0,1,1.19-.389A2.52,2.52,0,0,1,85.076,125.375Zm-45.83,52.306q10.206,6.036,20.405,12.08a1.446,1.446,0,0,1,.846,1.377q.075,12,.19,24a5.481,5.481,0,0,1-.1.656c-.523-.265-.91-.441-1.275-.658-6.549-3.874-13.09-7.772-19.654-11.63a1.863,1.863,0,0,1-1.1-1.822c-.032-7.711-.12-15.418-.187-23.124,0-.341.026-.679.046-1.138A3.881,3.881,0,0,1,39.246,177.681Zm-.816-2.9c.083-7.518.188-15.03.238-22.547a2.236,2.236,0,0,1,1.229-2.22c6.544-3.8,13.05-7.662,19.572-11.5.363-.214.751-.384,1.3-.663.03.634.076,1.1.071,1.565-.084,7.517-.189,15.032-.237,22.549a2.227,2.227,0,0,1-1.237,2.207c-6.5,3.787-12.959,7.628-19.432,11.456-.4.235-.809.463-1.425.819C38.473,175.713,38.428,175.245,38.43,174.778Zm21.246,13.939c-6.56-3.757-13.152-7.458-19.729-11.183-.365-.209-.705-.467-1.238-.828.576-.333.981-.567,1.388-.8,6.593-3.7,13.2-7.383,19.769-11.123a2,2,0,0,1,2.271,0q6.274,3.593,12.574,7.135v.025q3.757,2.124,7.515,4.248c.244.139.465.316.924.633l-.088.059c-.545.312-.907.521-1.265.723L74.711,181.6v.07q-6.26,3.518-12.5,7.06A2.232,2.232,0,0,1,59.676,188.717Zm1.743,2.668a1.684,1.684,0,0,1,.92-1.646q6.272-3.669,12.519-7.374v.01q3.593-2.123,7.185-4.242c.215-.129.432-.254.668-.389.185-.1.39-.2.7-.35.033.593.071.993.066,1.389-.081,7.608-.188,15.217-.248,22.822a1.89,1.89,0,0,1-1.028,1.877q-3.753,2.192-7.492,4.405v.072q-6.49,3.817-12.982,7.635a3.015,3.015,0,0,1-.493.149c-.028-.446-.069-.773-.065-1.1C61.256,206.894,61.353,199.14,61.419,191.385Zm14.1-19.741c-4.69-2.782-9.328-5.532-13.98-8.288q-.118-12.628-.235-25.295c.661.128,7.473,4,13.408,7.5v.126l7.677,4.549c.368.239.664.438.879.593q.114,12.569.233,25.16C82.675,175.683,79.356,173.85,75.518,171.644Zm-14.2-35.893c.081-7.809.188-15.616.245-23.424a1.911,1.911,0,0,1,1.168-1.809q8.917-5.2,17.814-10.446c.865-.508,1.748-1.011,2.8-1.617l.184-.085c.042.493.107.89.1,1.276-.081,7.662-.178,15.325-.249,22.984a1.793,1.793,0,0,1-.919,1.8q-3.883,2.266-7.751,4.555v.073q-6.1,3.594-12.2,7.194c-.288.173-.6.307-1.017.517A6.264,6.264,0,0,1,61.315,135.751Zm.81-50.027Q68.408,89.3,74.711,92.85V92.9l7.62,4.311c.285.158.544.359,1.035.684l-.009.006c-.622.359-1,.578-1.372.793q-3.639,2.042-7.274,4.091v.069q-6.231,3.5-12.457,7.009a1.9,1.9,0,0,1-2.142.041c-6.732-3.843-13.494-7.645-20.242-11.461-.247-.139-.476-.314-.852-.563a9.8,9.8,0,0,1,.94-.7q10.142-5.7,20.279-11.4A1.686,1.686,0,0,1,62.125,85.724Zm-1.381-2.6a1.9,1.9,0,0,1-1.058,1.863c-6.7,3.913-13.372,7.864-20.056,11.8-.25.147-.517.263-.89.444a6.165,6.165,0,0,1-.165-1q.124-11.707.257-23.406a1.588,1.588,0,0,1,.808-1.56Q50,65.2,60.324,59.09a5.1,5.1,0,0,1,.6-.228c.031.541.073.919.069,1.3C60.905,67.813,60.8,75.471,60.744,83.125ZM39.954,99.037q9.829,5.815,19.662,11.639a1.755,1.755,0,0,1,1.038,1.7c.038,7.766.123,15.528.193,23.29,0,.29-.022.582-.032.836a1.566,1.566,0,0,1-.168.109c-.04.016-.1.046-.13.03a8.536,8.536,0,0,1-.788-.381q-10.452-6.19-20.935-12.409c-.076-8.455-.155-16.842-.231-25.53C39.2,98.65,39.592,98.82,39.954,99.037Zm-.5,26.287c6.607,3.776,13.248,7.51,19.872,11.254.334.189.644.42,1.225.794-.648.372-1.059.618-1.473.85q-9.836,5.524-19.66,11.055a1.9,1.9,0,0,1-2.146.139c-6.777-3.875-13.582-7.7-20.377-11.549-.249-.139-.477-.319-.841-.567a10.1,10.1,0,0,1,.961-.72c6.675-3.757,13.37-7.5,20.028-11.287A2.13,2.13,0,0,1,39.455,125.324ZM15.733,191.445a1.782,1.782,0,0,1,.94-1.781c6.739-3.94,13.452-7.92,20.173-11.883.25-.149.521-.263.944-.473.039.509.106.92.1,1.332-.084,7.654-.184,15.311-.252,22.968a1.78,1.78,0,0,1-.926,1.788c-6.785,3.959-13.546,7.96-20.311,11.944-.209.121-.434.21-.861.413-.027-.585-.063-.964-.058-1.341C15.567,206.757,15.668,199.1,15.733,191.445ZM14.12,188.8C7.558,185.038.958,181.341-5.626,177.618c-.373-.214-.728-.46-1.225-.779.4-.29.678-.541.992-.72,6.678-3.761,13.369-7.5,20.036-11.288a2,2,0,0,1,2.276-.034c6.649,3.806,13.331,7.561,20,11.335.331.185.636.413,1.216.793-.66.379-1.07.619-1.484.856-6.514,3.653-13.038,7.291-19.535,10.98A2.228,2.228,0,0,1,14.12,188.8Zm23.759-12.5c-.462-.224-.81-.363-1.128-.55q-9.957-5.9-19.919-11.788a1.77,1.77,0,0,1-1.01-1.724c-.039-7.762-.128-15.526-.193-23.291,0-.324.042-.651.077-1.125.416.2.722.314,1,.474q10.017,5.937,20.041,11.866a1.764,1.764,0,0,1,1.015,1.722c.04,7.764.127,15.523.2,23.287C37.959,175.5,37.913,175.824,37.879,176.3ZM15.694,135.414c.082-7.609.185-15.215.244-22.824a1.892,1.892,0,0,1,1-1.9c6.655-3.884,13.281-7.819,19.921-11.736.321-.188.672-.334,1.172-.586.026.608.069,1.076.063,1.545-.081,7.508-.191,15.018-.235,22.53a2.213,2.213,0,0,1-1.255,2.19c-6.49,3.784-12.95,7.622-19.421,11.435-.4.24-.816.473-1.4.811C15.743,136.248,15.69,135.831,15.694,135.414Zm.359-51.052c-.078-8.5-.154-16.889-.231-25.219a1.463,1.463,0,0,1,.218-.121A.2.2,0,0,1,16.173,59c.264.126.534.244.785.387L37.885,71.8c.077,8.47.152,16.886.232,25.64C30.62,93,23.384,88.708,16.053,84.362Zm.393,1.307c6.816,3.9,13.662,7.744,20.493,11.61.2.116.386.27.711.5a10.8,10.8,0,0,1-.953.693q-10.074,5.675-20.146,11.346a1.8,1.8,0,0,1-2.018.1c-6.818-3.9-13.66-7.745-20.493-11.61-.2-.119-.386-.275-.824-.586.569-.33.94-.547,1.311-.757q9.957-5.587,19.906-11.18A1.791,1.791,0,0,1,16.446,85.669Zm-2.605,50.487C7.292,132.278.752,128.381-5.814,124.531a1.875,1.875,0,0,1-1.109-1.821c-.034-7.708-.122-15.417-.189-23.126,0-.338.022-.676.042-1.165a5.686,5.686,0,0,1,.949.339q10.145,6,20.279,12.005a1.449,1.449,0,0,1,.86,1.367c.046,8.005.125,16,.189,24.007a5.611,5.611,0,0,1-.1.665C14.591,136.538,14.2,136.369,13.841,136.156ZM-7.027,152.2a2.334,2.334,0,0,1,1.335-2.31c6.587-3.825,13.135-7.715,19.7-11.58.281-.168.6-.281,1.04-.487.046.485.111.85.109,1.21-.086,7.712-.184,15.423-.25,23.132a1.794,1.794,0,0,1-.949,1.779c-6.7,3.912-13.383,7.871-20.07,11.812-.282.169-.587.3-1.1.546-.021-.69-.047-1.122-.041-1.553C-7.175,167.234-7.062,159.719-7.027,152.2Zm-.018,50.523c-.074-8.353-.151-16.769-.229-25.538,7.534,4.471,14.746,8.747,22.059,13.082q.119,12.628.235,25.282C13.924,215.361-4.116,204.854-7.045,202.726ZM-7.4,253.871c.081-7.605.186-15.212.245-22.82a1.891,1.891,0,0,1,1.014-1.883c6.654-3.89,13.281-7.824,19.923-11.735.318-.193.663-.335,1.138-.564.033.556.087.975.083,1.4-.083,7.561-.2,15.119-.238,22.677a2.223,2.223,0,0,1-1.269,2.186C7.044,246.887.627,250.694-5.8,254.489c-.451.264-.9.519-1.517.873C-7.355,254.713-7.408,254.291-7.4,253.871Zm43.73,2.629q-10.081,5.678-20.167,11.344a1.677,1.677,0,0,1-1.884.1q-10.3-5.87-20.641-11.695c-.2-.112-.369-.272-.719-.531.471-.309.742-.514,1.034-.68,6.6-3.712,13.205-7.4,19.778-11.146a2.448,2.448,0,0,1,2.8-.006c6.475,3.722,12.988,7.371,19.488,11.047.409.234.8.5,1.36.842C36.931,256.085,36.645,256.321,36.327,256.5ZM15.7,242.341q-.119-12.644-.231-25.313c1.273.311,18.412,10.3,22.059,12.822.079,8.345.154,16.775.235,25.564C30.223,250.946,23.009,246.671,15.7,242.341ZM37.1,228.43q-10.164-5.8-20.371-11.531c-.244-.139-.464-.32-.832-.577.442-.3.771-.557,1.126-.762q10.019-5.627,20.03-11.256a1.791,1.791,0,0,1,2.013-.081c6.774,3.872,13.577,7.694,20.366,11.537.245.137.466.314.932.638-.553.316-.888.515-1.225.7q-10.017,5.62-20.026,11.257A1.785,1.785,0,0,1,37.1,228.43Zm1.121,25.629c.081-7.708.182-15.422.254-23.131a1.792,1.792,0,0,1,.921-1.8c6.788-3.966,13.549-7.974,20.321-11.963a9.107,9.107,0,0,1,.855-.362c.027.583.063.966.059,1.35q-.126,11.5-.248,22.987a1.794,1.794,0,0,1-.928,1.789q-10.122,5.908-20.2,11.888c-.24.141-.506.248-.9.439A10.086,10.086,0,0,1,38.223,254.059Zm43.4,2.661q-3.453,1.941-6.91,3.878v.074q-6.335,3.55-12.657,7.124a2.106,2.106,0,0,1-2.405.024c-6.6-3.787-13.246-7.511-19.874-11.256-.337-.189-.655-.411-1.1-.7a6.077,6.077,0,0,1,.781-.655q10.2-5.751,20.419-11.5a1.586,1.586,0,0,1,1.76-.09q6.534,3.719,13.081,7.418v.031l7.074,4c.362.207.7.465,1.244.838C82.433,256.254,82.03,256.492,81.621,256.72Zm1.649-1.54c-.18-.059-.34-.108-.488-.161l-7.924-4.695v.053q-6.348-3.762-12.7-7.519a1.445,1.445,0,0,1-.856-1.369q-.069-12.011-.193-24.024a3.688,3.688,0,0,1,.056-.428c.644.093,7.513,3.976,13.543,7.549v.158q3.707,2.2,7.417,4.39a1.77,1.77,0,0,1,1.016,1.718c.038,7.765.127,15.526.194,23.29C83.338,254.426,83.306,254.722,83.27,255.18Zm.364-26.6c-.033,0-.066,0-.1,0a2.5,2.5,0,0,1-.446-.094,3.511,3.511,0,0,1-.689-.309c-2.505-1.446-5.026-2.867-7.542-4.294v.039q-5.923-3.359-11.852-6.707c-.46-.258-.91-.523-1.524-.882a11.518,11.518,0,0,1,1.021-.758q6.177-3.476,12.355-6.949v0q3.845-2.166,7.687-4.336c.062-.032.123-.061.183-.089s.132-.061.2-.09a2.015,2.015,0,0,1,1.326-.088,2.894,2.894,0,0,1,.478.211c6.692,3.83,13.419,7.606,20.132,11.4.283.164.545.37,1.036.715-1.221.7-2.225,1.293-3.24,1.866-5.871,3.3-11.76,6.573-17.613,9.91A2.929,2.929,0,0,1,83.634,228.578Zm.322,25.719c.083-7.859.189-15.714.245-23.574a1.787,1.787,0,0,1,.05-.33,2.147,2.147,0,0,1,.9-1.215c.064-.04.12-.083.189-.122q7.968-4.655,15.917-9.339c1.555-.912,3.127-1.8,4.876-2.808.043.456.094.77.093,1.076-.086,7.759-.19,15.52-.249,23.28a1.794,1.794,0,0,1-1.017,1.742q-10.05,5.886-20.062,11.832c-.215.128-.46.236-.766.382A4.282,4.282,0,0,1,83.956,254.3Zm43.587,2.151q-10.074,5.672-20.149,11.344a2.293,2.293,0,0,1-.986.335,1.819,1.819,0,0,1-.883-.258c-6.773-3.871-13.576-7.7-20.364-11.538-.247-.14-.467-.322-.937-.643.668-.383,1.128-.656,1.594-.915q9.1-5.106,18.192-10.228c.449-.254.9-.5,1.348-.758a3.306,3.306,0,0,1,.553-.25l.07-.023a1.877,1.877,0,0,1,.378-.063,2.249,2.249,0,0,1,1.226.342c6.555,3.761,13.149,7.458,19.73,11.177.369.211.721.456,1.229.776C128.138,256.032,127.855,256.271,127.543,256.448Zm.413-1.743q-9.946-5.9-19.9-11.774a1.766,1.766,0,0,1-1.021-1.713c-.037-7.707-.122-15.416-.188-23.122,0-.343.041-.691.082-1.222.216.112.412.211.588.3,6.976,4.135,13.809,8.183,20.683,12.256a1.882,1.882,0,0,1,.549.828c.076,8.263.152,16.5.23,24.994C128.5,255,128.217,254.862,127.956,254.705Zm1.461-26.022a2.168,2.168,0,0,1-1.064-.326c-6.652-3.807-13.331-7.557-20-11.331-.32-.184-.626-.405-1.054-.69.106-.092.2-.18.291-.263a5.543,5.543,0,0,1,.667-.469q8.322-4.687,16.645-9.378,1.722-.97,3.445-1.94a3.261,3.261,0,0,1,.468-.216c.02-.008.041-.02.061-.027a1.888,1.888,0,0,1,.434-.08,2.112,2.112,0,0,1,1.109.324c6.652,3.808,13.332,7.558,20,11.332.313.178.613.4,1.139.749l.06.051c-.607.351-.976.568-1.35.777-6.6,3.7-13.2,7.39-19.787,11.125A2.508,2.508,0,0,1,129.417,228.683Zm.175,25.034c.088-7.559.188-15.118.251-22.676a2.344,2.344,0,0,1,.29-1.3c.02-.029.041-.059.064-.087a1.549,1.549,0,0,1,.206-.227,2.391,2.391,0,0,1,.387-.289l.019-.013c6.7-3.908,13.37-7.868,20.05-11.8.051-.03.11-.057.163-.085.215-.108.445-.216.721-.349a10.038,10.038,0,0,1,.112,1.125c-.083,7.7-.187,15.409-.25,23.115a1.781,1.781,0,0,1-.961,1.768q-10.112,5.906-20.183,11.872c-.216.128-.462.229-.822.4C129.618,254.549,129.589,254.13,129.592,253.717Zm44.465,2.317c-.453.263-.8.469-1.155.663-6.55,3.679-13.11,7.34-19.639,11.058a2.335,2.335,0,0,1-1.3.351,2.724,2.724,0,0,1-1.08-.373c-6.56-3.758-13.15-7.457-19.732-11.177-.365-.206-.7-.469-1.16-.781.5-.313.845-.561,1.216-.771q8.264-4.644,16.526-9.294,1.689-.951,3.381-1.9c.065-.037.126-.059.189-.09a2.919,2.919,0,0,1,.329-.148,1.778,1.778,0,0,1,.185-.045,1.743,1.743,0,0,1,.307-.047,2.334,2.334,0,0,1,1.1.344c6.6,3.78,13.238,7.506,19.858,11.251.358.205.691.46,1.2.8C174.2,255.93,174.131,255.98,174.057,256.034Zm.549-.894a3.925,3.925,0,0,1-.794-.282q-10.144-6-20.278-12.006a1.452,1.452,0,0,1-.863-1.37c-.048-8-.126-16-.189-24a5.012,5.012,0,0,1,.087-.6c.444.223.8.387,1.128.58q9.829,5.818,19.651,11.636a2.95,2.95,0,0,1,.744.574c.027.033.057.064.082.1a1.6,1.6,0,0,1,.295.989c.028,7.852.122,15.71.19,23.567C174.664,254.547,174.633,254.784,174.606,255.14Zm.32-26.564a2.8,2.8,0,0,1-1.214-.408c-6.512-3.74-13.063-7.416-19.6-11.116-.371-.211-.725-.459-1.229-.784.37-.263.61-.467.883-.622q10.2-5.736,20.41-11.472a3.069,3.069,0,0,1,.346-.164,1.5,1.5,0,0,1,.94-.047,1.753,1.753,0,0,1,.323.133q10.363,5.9,20.745,11.759a6.7,6.7,0,0,1,.64.505c-.6.346-1.019.59-1.442.827-6.5,3.658-13.022,7.294-19.5,11A2.583,2.583,0,0,1,174.926,228.576Zm.439,26.671c-.04-.58-.086-.983-.081-1.376.081-7.605.186-15.212.245-22.82a1.894,1.894,0,0,1,1.014-1.883c6.654-3.89,13.281-7.824,19.923-11.735.283-.171.6-.31,1-.5.034.521.082.928.079,1.33-.083,7.561-.2,15.119-.238,22.677a2.226,2.226,0,0,1-1.269,2.186c-6.45,3.759-12.867,7.566-19.291,11.361-.373.22-.753.435-1.221.7Zm43.5,1.253q-10.082,5.678-20.166,11.344a2.389,2.389,0,0,1-.886.331,1.6,1.6,0,0,1-.852-.231q-10.3-5.87-20.64-11.695a7.337,7.337,0,0,1-.658-.484,8.044,8.044,0,0,1,.784-.612c.063-.04.125-.079.189-.115,6.595-3.712,13.2-7.4,19.777-11.146a2.9,2.9,0,0,1,1.323-.43,2.769,2.769,0,0,1,1.327.424c6.475,3.722,12.988,7.371,19.488,11.047.409.234.8.5,1.36.842C219.471,256.085,219.186,256.321,218.867,256.5Zm-20.48-14.159q-.119-12.618-.231-25.262c2.075.815,18.366,10.322,21.911,12.771.079,8.317.154,16.719.235,25.476Zm22.33-13.646a1.793,1.793,0,0,1-.927-.265q-10.164-5.8-20.371-11.531c-.245-.139-.465-.32-.833-.577.442-.3.772-.557,1.126-.762q10.019-5.627,20.031-11.256a2.464,2.464,0,0,1,.94-.341,1.77,1.77,0,0,1,.925.26c6.774,3.872,13.577,7.694,20.366,11.537.246.137.466.314.933.638-.554.316-.889.515-1.225.7q-10.017,5.62-20.026,11.257A2.392,2.392,0,0,1,220.717,228.7Zm.194,25.364c.081-7.708.181-15.422.253-23.131a1.793,1.793,0,0,1,.922-1.8c6.787-3.966,13.549-7.974,20.321-11.963a6.066,6.066,0,0,1,.71-.3c.027.547.06.921.056,1.291q-.126,11.5-.248,22.987a1.791,1.791,0,0,1-.928,1.789q-10.122,5.908-20.2,11.888c-.208.122-.45.227-.762.375A8.687,8.687,0,0,1,220.911,254.059Zm43.348,2.686c-6.56,3.679-13.123,7.342-19.665,11.051a2.571,2.571,0,0,1-1.125.377,2.315,2.315,0,0,1-1.132-.353c-6.6-3.787-13.247-7.511-19.875-11.256-.337-.189-.654-.411-1.1-.7a6.007,6.007,0,0,1,.78-.655q10.2-5.751,20.42-11.5a2.216,2.216,0,0,1,.826-.3,1.517,1.517,0,0,1,.786.214q10.434,5.939,20.888,11.845a5.4,5.4,0,0,1,.579.481C265.072,256.279,264.668,256.517,264.259,256.745Zm1.7-1.565a4.321,4.321,0,0,1-.818-.305q-10.15-6.006-20.292-12.017a1.444,1.444,0,0,1-.855-1.369q-.069-12.011-.194-24.024a2.835,2.835,0,0,1,.051-.386c1.193.44,7.781,4.174,13.548,7.594v.071l5.4,3.194c1.061.659,1.957,1.232,2.6,1.668a1.534,1.534,0,0,1,.365.658c.075,8.161.15,16.288.225,24.566C265.977,254.936,265.968,255.05,265.958,255.18Zm.307-26.6a3.126,3.126,0,0,1-1.344-.461c-6.384-3.681-12.815-7.282-19.228-10.913-.459-.258-.91-.523-1.524-.882a11.511,11.511,0,0,1,1.022-.758c6.638-3.735,13.288-7.45,19.908-11.215a2.688,2.688,0,0,1,1.231-.4,2.476,2.476,0,0,1,1.159.359c6.562,3.764,13.162,7.467,19.745,11.188.374.21.725.456,1.337.846-1.251.72-2.252,1.307-3.264,1.878-5.078,2.851-10.164,5.688-15.226,8.567-.783.443-1.568.881-2.35,1.327A2.876,2.876,0,0,1,266.265,228.582Zm.4,26.583c-.033-.574-.066-.988-.062-1.385.081-7.52.2-15.034.228-22.551a2.323,2.323,0,0,1,1.359-2.293c6.472-3.762,12.912-7.584,19.364-11.381l.16-.091c.309-.177.649-.335,1.111-.565l0,.028c.017.644.042,1.064.037,1.474-.085,7.519-.191,15.03-.239,22.55a2.231,2.231,0,0,1-1.231,2.208l-.092.055c-6.467,3.767-12.9,7.592-19.342,11.4-.169.1-.342.2-.527.3-.209.11-.435.213-.74.363C266.683,255.241,266.673,255.206,266.663,255.165Zm43.52,1.3q-10.068,5.675-20.146,11.349a3.66,3.66,0,0,1-.379.179,2.025,2.025,0,0,1-.275.093l-.023,0a1.549,1.549,0,0,1-.688.01,2.2,2.2,0,0,1-.5-.211c-6.774-3.87-13.574-7.694-20.366-11.537-.248-.141-.467-.32-.94-.645.581-.337.954-.554,1.335-.77q9.951-5.586,19.9-11.182a2.9,2.9,0,0,1,.731-.3,1.918,1.918,0,0,1,.733.039,2.052,2.052,0,0,1,.4.166c6.777,3.871,13.579,7.694,20.369,11.534.246.139.469.314.844.57C310.78,256.051,310.5,256.288,310.183,256.466Zm1.388-1.188c-.149-.079-.281-.147-.4-.207l-21.032-12.465a1.546,1.546,0,0,1-.438-.665c-.076-8.249-.152-16.547-.23-25.066.556.287.955.475,1.321.7,6.463,3.825,12.913,7.678,19.4,11.465a2.2,2.2,0,0,1,1.234,2.193c.022,7.461.113,14.925.181,22.387C311.612,254.073,311.589,254.541,311.571,255.278Zm.477-26.59a2.346,2.346,0,0,1-1.133-.351c-6.605-3.789-13.247-7.513-19.873-11.264-.334-.187-.656-.407-1.1-.693a6.083,6.083,0,0,1,.78-.653q10.207-5.754,20.42-11.5a2.854,2.854,0,0,1,.535-.231,1.8,1.8,0,0,1,.813.034,1.858,1.858,0,0,1,.266.108q10.433,5.941,20.887,11.844a5.6,5.6,0,0,1,.578.487c-.568.324-.972.561-1.379.792-6.559,3.678-13.124,7.342-19.667,11.05a3.355,3.355,0,0,1-.605.28c-.035.012-.069.012-.1.021A1.956,1.956,0,0,1,312.048,228.688Zm.264,26.484c-.037-.53-.084-.936-.081-1.342.087-7.606.189-15.209.247-22.819a1.9,1.9,0,0,1,1.017-1.883c6.656-3.891,13.282-7.824,19.923-11.738.281-.166.6-.3.993-.492.035.523.085.932.08,1.333-.082,7.561-.194,15.117-.234,22.678A2.231,2.231,0,0,1,333,243.092c-.523.3-1.044.613-1.566.919q-9.017,5.264-18,10.584c-.324.189-.679.355-1.111.572Zm43.555,1.357q-4.542,2.556-9.088,5.112-.789.442-1.576.887-4.734,2.659-9.464,5.323a2.128,2.128,0,0,1-2.017.019c-6.732-3.846-13.491-7.647-20.24-11.464-.246-.14-.466-.321-.929-.639.548-.314.883-.515,1.22-.7q10.017-5.628,20.03-11.257a2.465,2.465,0,0,1,.935-.341,1.872,1.872,0,0,1,.48.071,2.1,2.1,0,0,1,.449.19c6.778,3.87,13.578,7.693,20.37,11.536.241.136.465.318.834.571C356.467,256.12,356.185,256.352,355.867,256.529Zm1.369-1.362c-.149-.049-.293-.09-.427-.129a6.306,6.306,0,0,1-.582-.292q-9.949-5.888-19.9-11.783a1.646,1.646,0,0,1-1.023-1.572c-.033-7.854-.122-15.708-.19-23.562,0-.262.044-.532.089-.981l.055.027c.541.3.93.51,1.3.732,6.421,3.8,12.833,7.628,19.278,11.4a2.207,2.207,0,0,1,1.278,2.174c.017,7.515.111,15.027.172,22.54C357.3,254.154,357.264,254.6,357.236,255.167Zm.643-26.6a2.017,2.017,0,0,1-.85-.062,3.58,3.58,0,0,1-.674-.31c-6.512-3.741-13.064-7.412-19.6-11.115-.373-.208-.724-.456-1.232-.785.366-.26.608-.467.877-.618q10.2-5.737,20.408-11.478a1.9,1.9,0,0,1,.9-.278,1.928,1.928,0,0,1,.843.273q5.81,3.3,11.636,6.588v-.044q4.519,2.559,9.035,5.122a6.575,6.575,0,0,1,.64.505c-.6.346-1.019.59-1.441.827q-4.116,2.314-8.234,4.625v-.007q-5.666,3.184-11.312,6.4a3.608,3.608,0,0,1-.563.255,2.515,2.515,0,0,1-.309.086C357.96,228.552,357.92,228.555,357.879,228.562Zm.042,25.421c.084-7.653.184-15.31.252-22.966a1.778,1.778,0,0,1,.93-1.785q5.623-3.283,11.229-6.6v-.079q4.337-2.56,8.675-5.119c.318-.193.663-.335,1.138-.564.033.556.087.975.083,1.4-.083,7.561-.2,15.119-.237,22.677a2.225,2.225,0,0,1-1.27,2.186q-4.276,2.493-8.536,5.01v0q-5.871,3.459-11.744,6.915a3.22,3.22,0,0,1-.464.174C357.952,254.716,357.916,254.349,357.921,253.983Zm43.634,2.517q-10.082,5.678-20.167,11.344a1.677,1.677,0,0,1-1.884.1q-4.578-2.609-9.172-5.2V262.7q-5.7-3.231-11.412-6.458c-.169-.092-.315-.221-.621-.435a7.932,7.932,0,0,1,.894-.7q5.568-3.138,11.139-6.267v-.076q4.317-2.43,8.624-4.877a2.448,2.448,0,0,1,2.8-.006c6.474,3.722,12.988,7.371,19.488,11.047.409.234.8.5,1.36.842C402.159,256.085,401.873,256.321,401.555,256.5Zm-20.628-14.159q-.119-12.644-.231-25.313c1.272.311,18.412,10.3,22.059,12.822.079,8.345.154,16.775.235,25.564C395.451,250.946,388.237,246.671,380.927,242.341Zm21.4-13.911q-10.164-5.8-20.371-11.531c-.244-.139-.465-.32-.832-.577.442-.3.771-.557,1.126-.762q10.019-5.627,20.03-11.256a1.791,1.791,0,0,1,2.013-.081c6.774,3.872,13.577,7.694,20.366,11.537.245.137.466.314.932.638-.554.316-.888.515-1.225.7q-10.017,5.62-20.026,11.257A1.785,1.785,0,0,1,402.33,228.43Zm1.121,25.629c.081-7.708.182-15.422.254-23.131a1.792,1.792,0,0,1,.921-1.8c6.787-3.966,13.549-7.974,20.321-11.963a8.99,8.99,0,0,1,.855-.362c.027.583.063.966.059,1.35-.084,7.666-.18,15.324-.249,22.987a1.791,1.791,0,0,1-.927,1.789q-10.122,5.908-20.2,11.888c-.24.141-.506.248-.9.439A10.063,10.063,0,0,1,403.451,254.059Zm43.5,2.686c-6.56,3.679-13.123,7.342-19.664,11.051a2.106,2.106,0,0,1-2.4.024c-6.6-3.787-13.246-7.511-19.874-11.256-.337-.189-.655-.411-1.1-.7a6.143,6.143,0,0,1,.78-.655q10.2-5.751,20.42-11.5a1.586,1.586,0,0,1,1.76-.09q10.432,5.939,20.888,11.845a5.333,5.333,0,0,1,.578.481C447.759,256.279,447.356,256.517,446.946,256.745Zm.734-1.87q-10.151-6.006-20.291-12.017a1.445,1.445,0,0,1-.856-1.369q-.069-12.011-.193-24.024a3.688,3.688,0,0,1,.056-.428c1.038.15,18.235,10.138,22.049,12.817.077,8.433.155,16.825.232,25.383A6.481,6.481,0,0,1,447.68,254.875Zm-.218-26.754c-6.384-3.681-12.815-7.282-19.229-10.913-.459-.258-.909-.523-1.523-.882a11.518,11.518,0,0,1,1.021-.758c6.638-3.735,13.289-7.45,19.908-11.215a2.243,2.243,0,0,1,2.537-.036c6.563,3.764,13.162,7.467,19.746,11.188.374.21.725.456,1.336.846-1.25.72-2.251,1.307-3.264,1.878-5.874,3.3-11.766,6.566-17.61,9.917A2.553,2.553,0,0,1,447.462,228.121Zm1.679,25.659c.081-7.52.2-15.034.229-22.551a2.322,2.322,0,0,1,1.358-2.293c6.5-3.778,12.968-7.617,19.447-11.429.364-.217.752-.386,1.336-.681.017.707.045,1.143.04,1.575-.085,7.519-.191,15.03-.24,22.55a2.233,2.233,0,0,1-1.234,2.211c-6.5,3.784-12.958,7.627-19.431,11.454-.405.238-.813.467-1.428.822C449.182,254.708,449.137,254.24,449.141,253.78Zm43.73,2.686q-10.069,5.675-20.147,11.349a1.8,1.8,0,0,1-2.015.076c-6.774-3.87-13.574-7.694-20.366-11.537-.247-.141-.467-.32-.939-.645.581-.337.954-.554,1.334-.77q9.952-5.586,19.9-11.182a1.792,1.792,0,0,1,2.012-.09c6.777,3.871,13.579,7.694,20.369,11.534.245.139.468.314.843.57C493.467,256.051,493.186,256.288,492.871,256.466Zm1.385-1.074-22.008-13.043c-.077-8.408-.155-16.864-.234-25.55.64.335,1.069.53,1.468.772,6.464,3.825,12.913,7.678,19.4,11.465a2.2,2.2,0,0,1,1.234,2.193c.023,7.461.114,14.925.181,22.387C494.3,254.1,494.274,254.582,494.256,255.392Zm-.8-27.055c-6.6-3.789-13.246-7.513-19.872-11.264-.335-.187-.657-.407-1.106-.693a6.223,6.223,0,0,1,.78-.653q10.208-5.754,20.421-11.5a1.6,1.6,0,0,1,1.76-.089q10.433,5.941,20.888,11.844a5.761,5.761,0,0,1,.577.487c-.567.324-.972.561-1.379.792-6.558,3.678-13.124,7.342-19.666,11.05A2.11,2.11,0,0,1,493.455,228.337Zm1.317,25.493c.086-7.606.188-15.209.246-22.819a1.9,1.9,0,0,1,1.017-1.883c6.656-3.891,13.283-7.824,19.923-11.738.318-.188.665-.327,1.135-.559.035.559.09.98.085,1.4-.082,7.561-.194,15.117-.234,22.678a2.232,2.232,0,0,1-1.266,2.189c-6.536,3.8-13.037,7.66-19.557,11.5-.363.213-.75.386-1.263.648C494.82,254.673,494.768,254.256,494.772,253.83Zm43.782,2.7Q528.483,262.2,518.4,267.864a1.8,1.8,0,0,1-2.014.078c-6.774-3.871-13.575-7.695-20.367-11.536-.245-.14-.466-.321-.928-.639.548-.314.882-.515,1.22-.7q10.015-5.628,20.029-11.257a1.783,1.783,0,0,1,2.012-.08c6.778,3.87,13.578,7.693,20.369,11.536.242.136.465.318.834.571C539.154,256.12,538.872,256.352,538.554,256.529Zm-19.3-38.922c6.422,3.8,12.834,7.628,19.278,11.4a2.206,2.206,0,0,1,1.279,2.174c.017,7.515.111,15.027.171,22.54.006.47-.033.943-.062,1.579-.485-.231-.832-.365-1.149-.552q-9.951-5.888-19.9-11.783a1.644,1.644,0,0,1-1.023-1.572c-.033-7.854-.122-15.708-.191-23.562,0-.278.05-.558.1-1.061C518.407,217.132,518.833,217.359,519.251,217.607Zm20.623-15.664a1.467,1.467,0,0,1-.754,1.445q-10.359,6.083-20.694,12.2a5.677,5.677,0,0,1-.654.243c-.021-.64-.057-1.111-.051-1.581.082-7.516.19-15.029.234-22.548a2.237,2.237,0,0,1,1.262-2.2c6.542-3.809,13.052-7.668,19.573-11.509.333-.2.667-.386,1.141-.66a5.627,5.627,0,0,1,.2,1.04Q540.013,190.156,539.874,201.943Zm-21-63.613q10.092,5.965,20.164,11.943a1.429,1.429,0,0,1,.9,1.338c.041,8.059.117,16.111.181,24.168a2.657,2.657,0,0,1-.127.487c-3.749-2.03-7.315-4.274-10.944-6.4-3.657-2.146-7.3-4.329-10.968-6.5-.077-8.466-.154-16.85-.23-25.408A7,7,0,0,1,518.875,138.33Zm21.152-15.687a1.785,1.785,0,0,1-.941,1.787c-6.78,3.959-13.539,7.959-20.309,11.944-.205.121-.435.206-.853.4-.024-.591-.061-.971-.055-1.348.085-7.655.183-15.312.249-22.969a1.783,1.783,0,0,1,.949-1.773c6.737-3.937,13.451-7.92,20.171-11.885.252-.146.52-.255.911-.451a9.7,9.7,0,0,1,.126,1.181C540.2,107.239,540.091,114.944,540.027,122.643Zm.088-50.852c.079,8.452.156,16.888.238,25.465a4.382,4.382,0,0,1-.877-.278q-10.211-6.036-20.419-12.086a1.449,1.449,0,0,1-.848-1.377c-.047-8.007-.125-16.014-.191-24.021a7.478,7.478,0,0,1,.1-.743C525.539,63.149,532.79,67.445,540.115,71.791Zm.369-51.525c-.077,7.9-.176,15.8-.252,23.7a1.478,1.478,0,0,1-.786,1.427q-10.416,6.1-20.814,12.241a3.565,3.565,0,0,1-.493.15c-.027-.5-.067-.871-.062-1.244.084-7.7.182-15.409.248-23.116a1.678,1.678,0,0,1,.917-1.645q10.164-5.955,20.3-11.96c.207-.124.433-.215.751-.371A3.734,3.734,0,0,1,540.484,20.266Zm-43.479-2.325c6.594-3.7,13.195-7.388,19.771-11.122a2,2,0,0,1,2.271.008c6.6,3.777,13.236,7.5,19.857,11.247.366.207.7.468,1.172.779-.5.318-.843.565-1.211.772-6.589,3.711-13.189,7.4-19.758,11.141a2.232,2.232,0,0,1-2.533-.016c-6.557-3.759-13.15-7.462-19.726-11.181-.366-.206-.7-.469-1.235-.828C496.192,18.409,496.6,18.17,497.005,17.941Zm-1.687,1.523a3.9,3.9,0,0,1,.829.253q10.212,6.036,20.406,12.08a1.443,1.443,0,0,1,.848,1.374q.074,12,.191,24.005a5.274,5.274,0,0,1-.1.659c-.523-.267-.91-.443-1.274-.655q-9.828-5.825-19.655-11.633a1.867,1.867,0,0,1-1.1-1.822c-.031-7.708-.118-15.419-.188-23.126C495.272,20.262,495.3,19.923,495.318,19.464Zm.647,26.791c6.776,3.872,13.575,7.7,20.368,11.533.244.14.468.317.84.573-.442.3-.766.565-1.124.764q-10.008,5.634-20.025,11.265a1.787,1.787,0,0,1-2.01.084c-6.779-3.87-13.578-7.7-20.369-11.535-.246-.138-.468-.317-.938-.643.543-.313.877-.512,1.215-.7q10.017-5.624,20.029-11.256A1.791,1.791,0,0,1,495.965,46.255ZM494.8,20.676c-.087,7.652-.185,15.308-.254,22.966a1.789,1.789,0,0,1-.924,1.794c-6.784,3.952-13.543,7.954-20.313,11.941-.2.122-.433.208-.763.367a6.39,6.39,0,0,1-.16-1c.08-7.8.181-15.6.255-23.4a1.585,1.585,0,0,1,.811-1.56q10.356-6.064,20.683-12.176a4.947,4.947,0,0,1,.6-.228C494.758,19.917,494.8,20.3,494.8,20.676Zm-43.52-2.652c6.554-3.688,13.121-7.352,19.647-11.084a2.33,2.33,0,0,1,2.669.021c6.519,3.739,13.075,7.416,19.616,11.117.376.213.735.456,1.225.764a6.058,6.058,0,0,1-.813.665q-10.215,5.748-20.431,11.482a1.583,1.583,0,0,1-1.757.075q-10.374-5.9-20.768-11.767c-.163-.093-.306-.229-.691-.523C450.54,18.446,450.907,18.234,451.277,18.024ZM471.69,32.305c.077,8.482.156,16.894.234,25.646-7.5-4.445-14.735-8.732-22.062-13.071-.079-8.426-.157-16.855-.237-25.655Zm-21.581,13.81q10.428,5.928,20.872,11.828a5.713,5.713,0,0,1,.533.464c-.551.318-.964.557-1.377.791-6.5,3.663-13.021,7.3-19.5,11a2.333,2.333,0,0,1-2.667.033c-6.548-3.772-13.142-7.462-19.722-11.186-.334-.186-.648-.41-1.093-.7a5.037,5.037,0,0,1,.669-.564q10.327-5.812,20.664-11.62A1.459,1.459,0,0,1,450.109,46.115Zm-.943-25.5c-.084,7.711-.181,15.421-.25,23.135a1.8,1.8,0,0,1-.948,1.781c-6.705,3.917-13.378,7.88-20.063,11.824-.282.166-.587.289-1.083.521-.034-.575-.075-.913-.071-1.249.085-7.711.192-15.422.247-23.135a1.909,1.909,0,0,1,1.075-1.859c6.662-3.887,13.3-7.817,19.947-11.733.282-.166.588-.292,1.027-.507A11.9,11.9,0,0,1,449.166,20.611Zm-43.938-2.447c6.721-3.784,13.453-7.548,20.164-11.355a2,2,0,0,1,2.278-.026c6.651,3.8,13.333,7.557,20,11.33.329.187.634.417,1.184.778-1.236.709-2.238,1.3-3.253,1.871-5.873,3.3-11.76,6.574-17.611,9.913a2.435,2.435,0,0,1-2.791.045c-6.427-3.709-12.9-7.33-19.356-10.985-.458-.26-.909-.527-1.5-.872A7.806,7.806,0,0,1,405.228,18.164Zm-1.215,1.149c.57.3,1,.493,1.4.733,6.471,3.829,12.924,7.686,19.418,11.482A2.2,2.2,0,0,1,426.1,33.7c.02,7.518.112,15.039.178,22.556,0,.472-.038.946-.063,1.6-.57-.3-1-.5-1.4-.732-6.47-3.831-12.927-7.687-19.42-11.481a2.208,2.208,0,0,1-1.265-2.18c-.022-7.517-.112-15.035-.177-22.559C403.949,20.437,403.987,19.967,404.013,19.313Zm.977,27.117c6.513,3.746,13.073,7.419,19.614,11.122.379.213.74.452,1.22.751a4.054,4.054,0,0,1-.632.6q-10.338,5.82-20.681,11.629a1.483,1.483,0,0,1-1.63.023q-10.44-5.933-20.89-11.841a5.414,5.414,0,0,1-.517-.419c.486-.318.83-.566,1.2-.774,6.551-3.687,13.116-7.352,19.645-11.08A2.337,2.337,0,0,1,404.99,46.43Zm-1.517-25.754c-.079,7.661-.177,15.325-.248,22.985a1.777,1.777,0,0,1-.921,1.793c-6.746,3.936-13.466,7.921-20.194,11.887-.245.143-.51.253-1,.494-.017-.726-.042-1.2-.038-1.678.085-7.469.194-14.935.232-22.4a2.341,2.341,0,0,1,1.309-2.328c6.588-3.817,13.133-7.711,19.695-11.577.288-.17.6-.293,1.064-.513C403.412,19.863,403.477,20.27,403.473,20.676ZM359.6,18.319q5.363-3.024,10.729-6.029v-.084q4.784-2.685,9.565-5.376a1.788,1.788,0,0,1,2.015-.077c6.774,3.867,13.578,7.692,20.367,11.534.246.14.466.318.835.572-.4.283-.692.515-1.006.694q-10.074,5.665-20.151,11.336a1.793,1.793,0,0,1-2.016.071q-4.8-2.739-9.609-5.454v-.025Q365,22.462,359.66,19.439c-.246-.135-.463-.319-.82-.567A8.511,8.511,0,0,1,359.6,18.319Zm5.122,4.7c5.246,3.111,10.44,6.19,15.646,9.274.077,8.464.153,16.886.232,25.648-1.984-1.176-3.616-2.146-5.25-3.114q-2.511-1.488-5.021-2.979v-.033c-3.732-2.213-7.438-4.41-11.17-6.621a1.823,1.823,0,0,1-.524-.818q-.117-12.332-.23-24.723C359.131,19.915,361.621,21.261,364.725,23.021Zm-6.643,23.013a3.05,3.05,0,0,1,1.346.455q5.358,3.1,10.757,6.128v-.049q4.447,2.513,8.895,5.024c.33.187.64.416,1.2.777-1.149.661-2.066,1.2-2.991,1.723q-5.834,3.279-11.669,6.559-3.255,1.829-6.507,3.662a2.149,2.149,0,0,1-1.741.233,2.294,2.294,0,0,1-.256-.11c-6.783-3.871-13.585-7.7-20.384-11.548-.249-.137-.47-.316-.891-.608.518-.335.829-.561,1.161-.747,6.508-3.665,13.032-7.3,19.516-11.007A3.116,3.116,0,0,1,358.082,46.034ZM357.8,20.266c-.077,7.9-.175,15.8-.251,23.7a2.565,2.565,0,0,1-.025.258,2.127,2.127,0,0,1-1.023,1.323q-10.284,6.029-20.552,12.087a1.926,1.926,0,0,1-.349.109c-.027-.473-.064-.841-.059-1.2.083-7.7.181-15.409.247-23.116a1.679,1.679,0,0,1,.918-1.645q10.164-5.955,20.3-11.96c.175-.105.375-.193.621-.31A3.02,3.02,0,0,1,357.8,20.266Zm-44.562-1.618c.491-.283.862-.5,1.23-.707,6.594-3.7,13.2-7.388,19.771-11.122a2.27,2.27,0,0,1,1.087-.334,2.366,2.366,0,0,1,1.038.342c6.6,3.777,13.236,7.5,19.856,11.247.366.207.7.468,1.173.779-.5.318-.843.565-1.212.772-6.588,3.711-13.189,7.4-19.757,11.141a3.3,3.3,0,0,1-.512.228,2.363,2.363,0,0,1-.329.093c-.019,0-.037,0-.056.008a1.964,1.964,0,0,1-.846-.052,3.489,3.489,0,0,1-.643-.293c-6.558-3.759-13.15-7.462-19.727-11.181-.362-.2-.695-.464-1.22-.819C313.142,18.713,313.183,18.683,313.234,18.648Zm-.458.852a2.672,2.672,0,0,1,.684.217q10.211,6.036,20.406,12.08a1.51,1.51,0,0,1,.785.9l.007.016a1.8,1.8,0,0,1,.055.455c.049,8,.127,16,.192,24.005a4.234,4.234,0,0,1-.091.592c-.45-.227-.812-.4-1.14-.588q-9.827-5.825-19.654-11.633a1.867,1.867,0,0,1-1.1-1.822c-.031-7.708-.119-15.419-.189-23.126C312.731,20.272,312.758,19.939,312.776,19.5ZM312.35,46a1.587,1.587,0,0,1,.245.02c.056.007.113.012.17.024a2.181,2.181,0,0,1,.513.213c6.776,3.872,13.575,7.7,20.368,11.533.239.138.462.312.821.56-.083.067-.153.126-.226.187a9.729,9.729,0,0,1-.879.59q-10.01,5.634-20.025,11.265a2.772,2.772,0,0,1-.772.3,1.523,1.523,0,0,1-.188.037,1.586,1.586,0,0,1-.192-.016,1.668,1.668,0,0,1-.2-.025,2.146,2.146,0,0,1-.515-.215c-6.779-3.87-13.579-7.7-20.37-11.535-.245-.138-.468-.317-.938-.643.543-.313.877-.512,1.216-.7q10.017-5.624,20.029-11.256A2.5,2.5,0,0,1,312.35,46Zm-.241-25.322c-.087,7.652-.185,15.308-.253,22.966a2.036,2.036,0,0,1-.362,1.294,1.631,1.631,0,0,1-.135.171,2.353,2.353,0,0,1-.226.174,2.76,2.76,0,0,1-.253.185c-6.749,3.932-13.473,7.912-20.208,11.879-.156.084-.33.171-.528.266l-.154.071a5.426,5.426,0,0,1-.147-.94c.079-7.8.18-15.6.254-23.4a1.586,1.586,0,0,1,.812-1.56q10.356-6.064,20.682-12.176a2.839,2.839,0,0,1,.453-.176C312.073,19.94,312.11,20.311,312.109,20.676Zm-43.372-2.652c6.553-3.688,13.121-7.352,19.646-11.084a2.573,2.573,0,0,1,1.309-.389,2.808,2.808,0,0,1,1.213.41c6.52,3.739,13.075,7.416,19.617,11.117.375.213.734.456,1.225.764a6.06,6.06,0,0,1-.814.665Q300.718,25.255,290.5,30.989c-.088.05-.172.083-.257.122a1.625,1.625,0,0,1-1.056.076,1.819,1.819,0,0,1-.3-.123q-10.373-5.9-20.767-11.767c-.164-.093-.306-.229-.692-.523C268,18.446,268.366,18.234,268.737,18.024Zm-.53,1.953L289,32.305c.077,8.453.156,16.838.234,25.559C281.788,53.45,274.6,49.19,267.321,44.88c-.078-8.387-.155-16.778-.235-25.535C267.466,19.554,267.832,19.767,268.207,19.977Zm-1.04,26.029a1.759,1.759,0,0,1,.255.109q10.428,5.928,20.871,11.828a3.859,3.859,0,0,1,.445.384,5.667,5.667,0,0,1-.743.559q-1.856,1.047-3.713,2.092-5.67,3.188-11.332,6.387-2.619,1.476-5.237,2.951a2.624,2.624,0,0,1-1.006.3,2.569,2.569,0,0,1-1.282-.393c-6.547-3.772-13.142-7.462-19.721-11.186-.335-.186-.648-.41-1.093-.7a5.036,5.036,0,0,1,.668-.564q10.327-5.812,20.664-11.62a2.456,2.456,0,0,1,.361-.168A1.7,1.7,0,0,1,267.167,46.006Zm-.688-25.395c-.084,7.711-.182,15.421-.251,23.135a2.643,2.643,0,0,1-.127.814,2.016,2.016,0,0,1-.654.84c-.044.032-.076.065-.125.1s-.073.047-.109.071c-6.682,3.9-13.333,7.853-20,11.784-.252.149-.531.267-.94.455-.033-.532-.07-.861-.067-1.183.085-7.711.192-15.422.248-23.135a1.906,1.906,0,0,1,1.075-1.859c6.661-3.887,13.3-7.817,19.946-11.733.248-.146.529-.269.888-.441A10.44,10.44,0,0,1,266.479,20.611Zm-43.792-2.447c6.721-3.784,13.454-7.548,20.165-11.355a2.454,2.454,0,0,1,1.064-.358,2.2,2.2,0,0,1,1.067.332c6.651,3.8,13.332,7.557,20,11.33.3.169.586.38,1.044.685a5.027,5.027,0,0,1-.518.472l-1.329.769-5.747,3.236c-4.383,2.455-8.767,4.91-13.13,7.4a3.064,3.064,0,0,1-1.336.457,2.674,2.674,0,0,1-1.309-.412c-6.427-3.709-12.9-7.33-19.356-10.985-.457-.26-.909-.527-1.5-.872A7.9,7.9,0,0,1,222.687,18.164Zm-1.217,1.222c.492.253.89.442,1.255.66,6.471,3.829,12.924,7.686,19.417,11.482a2.2,2.2,0,0,1,1.271,2.176c.02,7.518.112,15.039.177,22.556,0,.453-.034.912-.059,1.522-.493-.254-.892-.445-1.255-.658-6.469-3.831-12.926-7.687-19.42-11.481a2.207,2.207,0,0,1-1.264-2.18c-.022-7.517-.112-15.035-.177-22.559C221.409,20.455,221.444,20,221.47,19.386Zm-.432,26.645a2.658,2.658,0,0,1,1.265.4c6.513,3.746,13.073,7.419,19.614,11.122.379.213.739.452,1.219.751a3.968,3.968,0,0,1-.632.6q-10.336,5.82-20.681,11.629a1.82,1.82,0,0,1-.752.245,1.566,1.566,0,0,1-.73-.222q-10.442-5.933-20.89-11.841a5.513,5.513,0,0,1-.518-.419c.487-.318.83-.566,1.2-.774,6.552-3.687,13.116-7.352,19.646-11.08A2.8,2.8,0,0,1,221.038,46.031Zm-.252-25.355c-.079,7.661-.178,15.325-.249,22.985a1.778,1.778,0,0,1-.92,1.793c-6.746,3.936-13.466,7.921-20.195,11.887-.217.128-.461.233-.86.425-.017-.685-.04-1.151-.036-1.609.085-7.469.195-14.935.232-22.4a2.343,2.343,0,0,1,1.309-2.328c6.589-3.817,13.133-7.711,19.7-11.577.253-.15.542-.272.923-.448C220.731,19.894,220.79,20.288,220.786,20.676Zm-43.9-2.339c.155-.089.3-.171.44-.25l2.913-1.637,7.4-4.16h0q4.858-2.727,9.713-5.459a2.438,2.438,0,0,1,.939-.339,1.792,1.792,0,0,1,.929.262C206,10.62,212.8,14.445,219.592,18.287c.246.14.466.318.834.572-.405.283-.691.515-1.006.694q-10.074,5.665-20.151,11.336a2.421,2.421,0,0,1-.939.335,1.8,1.8,0,0,1-.929-.264c-6.776-3.868-13.576-7.692-20.366-11.531-.232-.133-.448-.3-.848-.583C176.479,18.628,176.677,18.462,176.888,18.337Zm-1.054,1.307a38.358,38.358,0,0,1,3.719,1.9c6.1,3.619,12.1,7.175,18.131,10.747.076,8.435.152,16.83.231,25.561-1.916-1.136-3.511-2.084-5.1-3.027-5.207-3.088-10.409-6.19-15.634-9.24a2.091,2.091,0,0,1-1.218-2.059c-.025-7.519-.113-15.037-.179-22.554C175.779,20.589,175.807,20.194,175.834,19.644Zm.195,26.471a3.085,3.085,0,0,1,.492.218c6.607,3.784,13.245,7.511,19.872,11.259.33.187.64.416,1.2.777-1.15.661-2.066,1.2-2.991,1.723-6,3.373-12.012,6.727-17.994,10.132a2.629,2.629,0,0,1-1.362.411,2.549,2.549,0,0,1-1.021-.361c-6.56-3.763-13.161-7.463-19.744-11.184-.375-.214-.73-.46-1.232-.774a10.048,10.048,0,0,1,.983-.731c6.62-3.729,13.257-7.437,19.868-11.194l.11-.054c.083-.046.161-.074.242-.112A2.359,2.359,0,0,1,176.029,46.115Zm-.952-26.621c.041.536.083.921.077,1.3-.081,7.559-.195,15.117-.235,22.674a2.224,2.224,0,0,1-1.264,2.189c-6.45,3.754-12.866,7.568-19.295,11.358-.367.216-.741.429-1.215.7l-.186.052c-.026-.626-.062-1.069-.061-1.506.084-7.509.2-15.018.234-22.53a2.229,2.229,0,0,1,1.272-2.182c6.448-3.759,12.865-7.573,19.291-11.366.242-.143.486-.284.755-.439.173-.09.361-.175.613-.3C175.067,19.462,175.072,19.476,175.077,19.494Zm-43.515-1.42q4.028-2.264,8.054-4.53,1.942-1.089,3.883-2.183c2.738-1.54,5.48-3.073,8.214-4.621a2.878,2.878,0,0,1,.311-.141,1.768,1.768,0,0,1,1.158-.048,2.5,2.5,0,0,1,.4.177q10.042,5.729,20.114,11.391c.326.183.623.419,1.117.759-.574.328-.978.566-1.382.8-6.549,3.682-13.106,7.346-19.636,11.064a2.5,2.5,0,0,1-1.231.372,2.614,2.614,0,0,1-1.151-.374c-6.558-3.763-13.152-7.461-19.728-11.184-.369-.2-.706-.463-1.175-.775C130.942,18.484,131.238,18.254,131.562,18.074Zm-1.389,1.411c.116.031.23.058.334.083a7.006,7.006,0,0,1,.667.338q9.949,5.885,19.905,11.774a1.764,1.764,0,0,1,1,1.734c.042,7.706.128,15.417.195,23.126,0,.354-.049.712-.089,1.192-.392-.184-.711-.319-.992-.485q-9.954-5.9-19.906-11.778a1.771,1.771,0,0,1-1-1.731c-.039-7.711-.121-15.418-.189-23.127C130.1,20.28,130.137,19.93,130.173,19.485ZM129.737,46a1.993,1.993,0,0,1,1,.3c6.688,3.821,13.405,7.6,20.112,11.4.289.159.561.358.974.625a8.159,8.159,0,0,1-.817.633q-10.2,5.74-20.406,11.481a2.077,2.077,0,0,1-.877.3,1.8,1.8,0,0,1-.862-.259q-10.233-5.828-20.5-11.6c-.2-.117-.388-.273-.833-.588.566-.327.938-.543,1.312-.754q9.954-5.589,19.9-11.187a3.328,3.328,0,0,1,.519-.239c.045-.016.09-.02.136-.032A1.718,1.718,0,0,1,129.737,46Zm-.271-25.344c-.082,7.657-.186,15.312-.241,22.966a1.915,1.915,0,0,1-1.058,1.868c-6.7,3.907-13.373,7.859-20.057,11.8-.216.126-.459.236-.758.382a5.138,5.138,0,0,1-.149-.939q.124-11.7.253-23.41a1.583,1.583,0,0,1,.813-1.553q10.351-6.069,20.68-12.177a4.581,4.581,0,0,1,.454-.174C129.431,19.918,129.473,20.285,129.466,20.651ZM86,18.058c6.594-3.714,13.2-7.4,19.779-11.147a3.648,3.648,0,0,1,.524-.242,2.34,2.34,0,0,1,.351-.1l.023,0a2.04,2.04,0,0,1,.9.057,3.3,3.3,0,0,1,.59.263c6.559,3.764,13.161,7.466,19.745,11.19.373.209.721.458,1.22.777a12.331,12.331,0,0,1-1,.728q-10.087,5.666-20.175,11.335a2.169,2.169,0,0,1-.967.314,1.97,1.97,0,0,1-.9-.279q-10.177-5.8-20.384-11.543c-.245-.135-.462-.326-.925-.653C85.339,18.433,85.668,18.242,86,18.058Zm9.379,7.721c3.655,2.147,7.3,4.322,10.986,6.512.074,8.439.152,16.826.231,25.554-7.487-4.439-14.654-8.684-21.913-12.987-.079-8.391-.157-16.789-.239-25.486C88.278,21.471,91.8,23.678,95.38,25.779ZM84.014,45.944a1.961,1.961,0,0,1,1.03.292c6.689,3.824,13.406,7.6,20.113,11.4.272.152.539.338.913.581l.057.052a7.061,7.061,0,0,1-.82.621q-10.2,5.755-20.4,11.5a2.663,2.663,0,0,1-.417.19,2.013,2.013,0,0,1-1.042-.042,2.312,2.312,0,0,1-.281-.123q-4.15-2.362-8.311-4.706v.037q-5.918-3.351-11.842-6.7c-.334-.186-.648-.41-1.093-.7a5.037,5.037,0,0,1,.669-.564q10.226-5.756,20.461-11.506A2.412,2.412,0,0,1,84.014,45.944Zm-.243-26.525c.028.594.071,1.047.066,1.491-.083,7.52-.188,15.032-.237,22.549a2.235,2.235,0,0,1-1.233,2.211c-2.558,1.491-5.106,3-7.656,4.5v.074q-6.018,3.55-12.034,7.1c-.282.166-.587.289-1.083.521-.034-.575-.074-.913-.071-1.249.085-7.711.192-15.422.247-23.135a1.909,1.909,0,0,1,1.075-1.859q6.016-3.51,12.013-7.055v0q3.877-2.283,7.756-4.565C82.943,19.82,83.3,19.655,83.771,19.419ZM40,18.164c6.72-3.784,13.453-7.548,20.164-11.355a2,2,0,0,1,2.278-.026q6.123,3.5,12.269,6.962v.025q3.732,2.111,7.464,4.221c.376.213.739.455,1.221.752a4.359,4.359,0,0,1-.657.594q-4.014,2.262-8.028,4.52v.08q-5.984,3.352-11.949,6.738a2.435,2.435,0,0,1-2.791.045c-6.428-3.709-12.9-7.33-19.356-10.985-.458-.26-.909-.527-1.5-.872A7.806,7.806,0,0,1,40,18.164Zm-1.215,1.149c.57.3,1,.493,1.4.733,6.471,3.829,12.925,7.686,19.418,11.482a2.2,2.2,0,0,1,1.27,2.176c.02,7.518.113,15.039.178,22.556,0,.472-.039.946-.062,1.6-.571-.3-1-.5-1.4-.732-6.469-3.831-12.927-7.687-19.42-11.481a2.205,2.205,0,0,1-1.264-2.18c-.022-7.517-.112-15.035-.178-22.559C38.721,20.437,38.759,19.967,38.785,19.313Zm.977,27.117c6.514,3.746,13.073,7.419,19.615,11.122.378.213.739.452,1.219.751a4.054,4.054,0,0,1-.632.6q-10.336,5.82-20.682,11.629a1.481,1.481,0,0,1-1.629.023q-10.44-5.933-20.89-11.841a5.414,5.414,0,0,1-.517-.419c.486-.318.83-.566,1.2-.774C24,53.838,30.563,50.173,37.092,46.445A2.337,2.337,0,0,1,39.762,46.43ZM38.245,20.676C38.166,28.337,38.068,36,38,43.661a1.777,1.777,0,0,1-.921,1.793C30.33,49.39,23.611,53.375,16.882,57.341c-.245.143-.51.253-1.005.494-.017-.726-.042-1.2-.038-1.678.085-7.469.194-14.935.232-22.4a2.341,2.341,0,0,1,1.309-2.328c6.588-3.817,13.133-7.711,19.7-11.577.288-.17.6-.293,1.064-.513C38.184,19.863,38.25,20.27,38.245,20.676Zm-43.6-2.589Q4.655,12.461,14.669,6.83a1.788,1.788,0,0,1,2.015-.077c6.774,3.867,13.578,7.692,20.367,11.534.247.14.466.318.835.572-.405.283-.692.515-1.006.694Q26.806,25.219,16.729,30.889a1.792,1.792,0,0,1-2.015.071C7.938,27.092,1.138,23.268-5.652,19.429c-.248-.142-.469-.322-.928-.638C-6.03,18.471-5.7,18.275-5.359,18.087Zm-1.475,1.179C.611,23.683,7.849,27.974,15.143,32.3c.077,8.464.153,16.886.232,25.648-1.984-1.176-3.616-2.146-5.25-3.114C4.917,51.741-.284,48.639-5.51,45.589A2.091,2.091,0,0,1-6.727,43.53c-.025-7.519-.113-15.037-.18-22.554C-6.908,20.5-6.868,20.034-6.834,19.266Z"/></g></g></svg>